<svg xmlns="http://www.w3.org/2000/svg" viewBox="0 0 500 500"><g id="freepik--Background--inject-23"><path id="freepik--background--inject-23" d="M81.57,77.93c-18,11.68-37.64,33.43-52.25,62.7-32,64-49.52,224.5,98.57,299.54,80.33,40.71,206.34,46.52,286.34-4.86,92.67-59.5,96.35-177.77,42.11-262.57C403.36,89.9,220.53-12,81.57,77.93Z" style="fill:#37474f"></path><path id="freepik--Hands--inject-23" d="M127.89,440.17c1.66.85,3.36,1.67,5.06,2.48-18.58-11.53-36.19-24.45-49-41.95-2.18-3-4.25-6.17-5.06-9.78s-.12-7.74,2.56-10.29c5.26-5,16.29,1.46,21.74,3.55a64,64,0,0,0,26,4,30.45,30.45,0,0,0,10.89-2.49c1.13-.51,2.73-1.09,3.11-2.4a1.81,1.81,0,0,0-2-2.44,81.6,81.6,0,0,1-11.9-.51c-3.89-.45-7.88-1.23-11.12-3.45a2.1,2.1,0,0,1-1-1.15c-.26-1.15,1.22-1.84,2.38-2.05,5.73-1.07,11.57-1.71,17.14-3.45s11-4.74,14.29-9.53c.68-1,1.19-2.46.25-3.19a2.45,2.45,0,0,0-2.28,0c-2.2.75-4.32,1.71-6.49,2.54-8.4,3.21-17.9,4.48-26.38,1.47-.9-.32-2-1.21-1.45-2a1.68,1.68,0,0,1,1.17-.56c5.79-1,11.62-2,17.14-4s10.78-5.14,14.44-9.73a3.3,3.3,0,0,0,.78-1.49,1.21,1.21,0,0,0-.75-1.36,1.67,1.67,0,0,0-.91.09c-5.76,1.61-11.31,4.07-17.23,5-5.63.85-11.39.24-17-.73-2.44-.43-8.46-1.33-8.81-4.58-.21-1.92,1.91-3.08,3.36-3.8,3.89-1.94,8.5-2.79,12.77-3.39.83-.11,1.83-.35,2-1.16s-.71-1.59-1.54-2c-9.42-4.23-20.24.75-29.19,5.89s-19.2,10.76-29.06,7.67c-6.63-2.07-11.57-7.85-14.35-14.22-7.67-17.56-1.16-38.4,17.15-45.21,10.66-4,22.79-3.21,33.37,1,7.34,2.91,14.05,7.4,21.64,9.61a38.59,38.59,0,0,0,23.15-.53c2.08-.71,4.49-2.94,3.09-4.64a3.45,3.45,0,0,0-2.33-.94c-5.18-.65-10.76-.41-15.67-2.45-3.56-1.47-7.8-5.93-1.63-7.55,6.8-1.78,13.76.1,20.34,1.89,2.13.58,17.12,4.87,17.31,2.35a3.17,3.17,0,0,0-1.37-2.35c-8.51-7.57-19.88-10.17-30.61-12.85-3.65-.91-1.49-3.27,1-3.9,3.2-.81,7.55.3,10.73,1a49.63,49.63,0,0,1,19.86,9.5c.54.42,1.39.83,1.8.29a1.24,1.24,0,0,0,.17-.65c.09-2.49-1.48-4.71-3.18-6.53a35.7,35.7,0,0,0-12.13-8.51c-4.32-1.84-9-2.58-13.51-3.66-1.39-.33-3.44-.41-4.13-1.86-1.1-2.3,1.46-3.07,3.21-3.22a30.46,30.46,0,0,1,7.39,0,30.32,30.32,0,0,1,5.57,1.62c2.51.91,7.28,3.77,9.92,3.45,2.15-.26,1.4-1.71.16-3.11a18.33,18.33,0,0,0-3.82-3c-11.46-7.51-25.23-7.84-37.92-3.52-10.29,3.5-20.23,8.77-31.08,9.54C69.48,258,48,250.84,36,239.21a31.63,31.63,0,0,1-7.56-10.79c-4.17-10.46-2.05-26.13,6.93-33.31,21.74-17.37,36.95,9.53,54.39,17.64a29.8,29.8,0,0,0,20.55,1.61c1.37-.39,3-1.71,2.21-2.88a2.26,2.26,0,0,0-1.5-.75c-3.7-.75-7.53-.86-11.18-1.85s-7.26-3.08-8.8-6.53c11.11,1.24,23.26,2.24,32.6-3.92,1.29-.85,2.63-2.18,2.31-3.69-.54-2.51-4.24-2-6.65-1.07a31.91,31.91,0,0,1-24-.88c.18-2.13,3.08-2.51,5.21-2.48A35.14,35.14,0,0,0,126,179.73c1.34-1.38,2.61-3.5,1.52-5.08-1.35-2-4.37-.7-6.38.55-8.87,5.52-21.46,7.62-29.13.53a3.35,3.35,0,0,1-1.24-2c-.18-1.61,1.63-2.66,3.17-3.15a33.5,33.5,0,0,1,11.12-1.5c-1-5-7.62-6.37-12.72-5.76-8,1-15.73,3.89-23.78,4.29s-17.16-2.62-20.42-10c-2.61-5.88-.69-13,3.17-18.12C57.81,130.91,69,124.8,79,121.3c14.58-5.11,32.18-4.24,43.82,5.92,3.38,2.95,6.48,7.17,10.68,8.92a21.25,21.25,0,0,0,7.55,1.63c.7,0,7.25-.24,7.24-1.06a3.36,3.36,0,0,0-1.36-2.46,13.29,13.29,0,0,0-2.5-1.46c-4-2-9.53-6-8.86-11.09.88-6.83,9.79-4.22,13.88-2a30,30,0,0,1,13.5,15.47,6.72,6.72,0,0,0,1.63,2.9c.86.72,2.39.78,2.95-.19a2.66,2.66,0,0,0,.27-1.28c.16-6.56-3.24-12.65-6.85-18.13q-2.93-4.41-6.11-8.64c2.07-1.4,4.86-.22,7,1.11A60.48,60.48,0,0,1,179.58,128c1.48,2.17,3.1,4.63,5.67,5.18.75-1.72.37-3.71-.17-5.51-2.72-9-9-16.39-15.15-23.5,2.11-.87,4.52-.14,6.61.78a38.08,38.08,0,0,1,8.35,5c2.35,1.86,4.62,4.41,7.61,5.17,2.17.55-.31-3.64-.83-4.46a37.28,37.28,0,0,0-4-5.23,37.92,37.92,0,0,0-10.5-8c-9.31-4.78-20.43-4.86-30.69-4.41-12.44.55-24.27,5-36.54,6.79-5.67.83-12.42.65-15.88-3.93-3.92-5.17-1.18-12.69,2.67-17.9,9.1-12.32,22.86-19.53,37.5-24.86A215,215,0,0,0,81.57,77.93c-18,11.68-37.64,33.43-52.25,62.7C-2.65,204.67-20.2,365.13,127.89,440.17Z" style="fill:#263238"></path></g><g id="freepik--Shadow--inject-23"><path id="freepik--shadow--inject-23" d="M261.34,415.56a157.81,157.81,0,0,1,33.92,16.79c11.89,7.78,22.77,17.19,35.43,23.65,16.45,8.39,35.32,11.4,53.77,10.49,10.45-.51,21.81-2.77,28.46-10.84A12,12,0,0,0,416,448.4c0-3.94-2.73-7.3-5.59-10-15.25-14.41-36.48-20.31-56.95-24.91s-32.76-10.39-52.88-20.81c-8.61-4.46-17.1-9.25-25.77-13.45l-.21-.11c-4.41-2.12-8.55-4.47-13.19-6.12-7.4-2.64-15-4.95-22.79-5.82s-15.91-.26-23.16,2.78a10.37,10.37,0,0,0-4.87,3.48,8.37,8.37,0,0,0-1.16,4.91,17.61,17.61,0,0,0,3.62,9.65,38.23,38.23,0,0,0,7.45,7.31C232.48,404.67,247.1,410.54,261.34,415.56Z" style="opacity:0.2"></path></g><g id="freepik--Character--inject-23"><g id="freepik--character--inject-23"><g id="freepik--Bottom--inject-23"><path d="M231.58,323.88c-2.47.18-5.1,2.39-5.57,3.76a34.73,34.73,0,0,0-.73,10.06,29.77,29.77,0,0,1-3.47,16.76c-2.93,5.3-5.75,16.6-2.37,23.42,3.72,7.5,11.91,12.16,19,12.71s10-1.81,11.53-6.83Z" style="fill:#37474f"></path><path d="M221.54,373.53a12.81,12.81,0,0,1-.79-3.84c-.13-3.31.12-7.41,1.55-10.37,1.64-3.38,3.57-6.68,4.61-10.3a46.41,46.41,0,0,0,1.88-11.66c.11-3.14-.29-6.6.61-9.66,2.73-9.28,12.72-9.09,18.29-10.47l19.15-16,9.51,26.57s-10.66,4.79-13.73,6.7c-4.05,2.52-7.58,8.16-9.85,12.17-2.88,5.08-6.53,10.43-6.12,16.5a47.39,47.39,0,0,0,2.12,9.66,9.06,9.06,0,0,1,.48,2.77c-.09,2.59-2.24,4.57-4.23,6.23-3.22,2.7-7.12,5.57-11.21,4.63-2.34-.53-4.2-2.23-5.89-3.93C225.33,379.89,222.79,376.91,221.54,373.53Z" style="fill:#ffbda7"></path><path d="M248.68,368.22c-.2-2.82-.67-10.47,1.08-14.06s5.66-10.92,7.48-13,3.57-2.74,2.89-3.33-12.29-2.56-16.12-2.35-4.15,2.58-6.07,4.44c0,0,2.85-4.57,2.55-8.76-.22-3.1.47-11.52,5.6-13.27l1.64-.69s.06-1.26-2.09-.6-9.44,2.75-11.94,4.47-5.43,3.78-5.8,9.44.59,7.39-.55,13-1.92,8.09-5,14.55A23.8,23.8,0,0,0,221,374.7Z" style="fill:#455a64"></path><path d="M360.75,212.89s-.08,25.18-13,59.69c-9.25,24.66-21.7,30.14-25.92,32.54-18.72,10.66-55,27.1-55,27.1s-11.89-10.35-10.22-23c14.53-12.09,27.7-31.45,42.58-35.58l6.57-72.25Z" style="fill:#455a64"></path><path d="M351.66,261.19l-3.13-14.69s8.33-7.89,9-17.65l-54.57,3.91-3.72,40.87a31.86,31.86,0,0,0-8.63,4.06l19.62,33.68c4.23-2.18,8.21-4.31,11.61-6.25,4.22-2.4,16.67-7.88,25.92-32.54C349.21,268.64,350.52,264.88,351.66,261.19Z" style="fill:#37474f"></path><path d="M234.05,386.69c4,1.28,12.64,3.46,15.73-2.62,2.52-5-.33-13.3-1.1-15.85-.44-.71-6.07-3.65-15.07-3.58-8.82.06-11.94,2.29-13.34,6.63A19.53,19.53,0,0,0,234.05,386.69Z" style="fill:#f0f0f0"></path><path d="M374.27,404.11c-1.92.13-1.54-2.45-2.81-8.25S366.15,365,366.15,365l-29.49,11.11S344.57,397,347.06,403c2.76,6.68,6.63,15.85,7.26,21.05s.92,19.72,7.45,22.32,12.57-.37,16.88-3.19,9.29-12.66,14.06-17.65,8.78-7.75,12.46-12.9,3.41-17.9-1.57-20.55-12.06.38-16.22,2.88S377.81,403.87,374.27,404.11Z" style="fill:#ffbda7"></path><path d="M289.15,200.15c-13.52,21.08-13.56,39.92-4.43,57s16.5,27.21,36.74,65.9c.05,8.68.23,17.33,6.58,33.62,7.89,20.25,16.54,42,16.54,42s8-13.09,25.72-10.88c-.93-10-6.9-57.48-9.81-71.52-3.62-17.48-15.67-70.74-15.67-70.74s15-7,15.26-33.11Z" style="fill:#455a64"></path><path d="M356.78,442.28c-1.39-3.85-2.27-8-2.94-15.62s-2-9.93-2-9.93.78-5,8.56-11.21S373,402.24,373,402.24s1.77,3.07,6.7-2.57l9.12,11.65Z" style="fill:#455a64"></path><path d="M404.3,391.4c-2.91-2.76-7.54-2.72-13.68.34a36.05,36.05,0,0,0-10.92,7.93s-3.24,5.89,1.67,9.89S404.3,391.4,404.3,391.4Z" style="fill:#f0f0f0"></path><path d="M408.74,396.75c-.47-2.16-1.28-3.48-2.35-4.17-.4-.26-1.82-1-2.09-1.18-3.61-2.35-10.1,2.7-15.56,7.66-6.37,5.77-12.25,17.36-17.4,25.21s-11.55,10.86-13.66,14.32a5.71,5.71,0,0,0,.61,7c.33.36,1.54,1.49,1.78,1.72,1.69,1.62,4.68,2.28,8.22,1.6,7.14-1.37,12.27-3.64,18.17-12s9-12.76,15.9-18.15S410.21,403.52,408.74,396.75Z" style="fill:#37474f"></path><path d="M408.74,396.75c-2.06-9.49-10.84-2.91-17.91,3.5-6.37,5.77-12.25,17.36-17.4,25.21s-11.7,10.77-13.65,14.32c-3.56,6.46,1.38,10.52,8.51,9.15s12.27-3.64,18.17-12,9-12.76,15.9-18.15S410.21,403.52,408.74,396.75Z" style="fill:#263238"></path><path d="M376,402.75h0c-2.15.95-3-.51-3-.51-6.78,6.86-7.51,11.26-7.51,11.26S372.1,405.39,376,402.75Z" style="fill:#37474f"></path><path d="M334.65,241.42a275.48,275.48,0,0,1,11.74,33.4,347.77,347.77,0,0,1,8.48,34.42c1.87,11.65,3.72,23.3,5.42,35s3.3,23.36,4.71,35.07q-3.56-17.34-6.65-34.74c-2.09-11.6-4-23.22-6-34.84-.94-5.79-2.32-11.5-3.65-17.23S346,281,344.51,275.34s-3-11.38-4.62-17S336.57,247,334.65,241.42Z" style="fill:#37474f"></path></g><g id="freepik--Top--inject-23"><path d="M349.35,128.82c4.63-.32,14,2.84,21.17,6.13,14.89,6.87,28,21.36,28,21.36s4.43,21.5-1.29,22.83c-2.55.59-7.25-1.27-18.81-7.85-12.59-7.15-21-12.84-21-12.53C357.38,159.32,349.35,128.82,349.35,128.82Z" style="fill:#f0997a"></path><path d="M331,78.85c4.29,0,8-5.94,4.77-10.75s-12.33-7-17.6-7.19a28.32,28.32,0,0,0-19.28,6.65c-2.53,2.15-4.66,4.74-7.22,6.85-6.14,5-14.58,4.82-21,.4-2.85-2-5.2-4.6-8.23-6.26s-7.22-2-9.61.47A8.26,8.26,0,0,0,251,72.77c-1.62,6.39-.06,14.16,7.9,19.45-2,.68-6.08-2-7.46-4.36.7,4.36,2.31,10.28,10.94,16.5,11.62,8.37,23.37,7.55,32.52,4.38,16-5.55,17-19.62,23.19-24.6C323.37,79.84,328.72,78.85,331,78.85Z"></path><g id="freepik--Chest--inject-23"><path d="M292.81,159.26c2.11-20.61,8.72-21.83,12.41-29.67,4-.57,12.52-1.64,12.52-1.64s6.79-1,23,0l8.6.84c4.61,6,20.92,20.21,24,31.32a21.69,21.69,0,0,1-9.88,23.78c-1,7.47-2.61,17.71-2.61,17.71s.47,9.56.61,17.11c-4.79,7.32-13.95,16.16-33.84,15.36-29.73-1.21-47.51-18-47.51-18l10.59-23.34C291.89,185.69,292.09,166.34,292.81,159.26Z" style="fill:#f0f0f0"></path><path d="M345.82,184.24s-7.12,7.11-19.49,4.4c-12.77-2.81-14.16-13.78-14.16-13.78s-2,14,13.23,17.32C339.47,195.28,345.82,184.24,345.82,184.24Z" style="fill:#e0e0e0"></path></g><path d="M305.22,129.59c-9.14.11-12.9,1.66-27.66,4.84-5,1.08-27.88,5.23-27.88,5.23l-11,22.89c7.42,3.15,26,2,40.11,2,8.8,0,12.61,1.64,13.74,4.37C299.49,171,313.91,143.65,305.22,129.59Z" style="fill:#ffbda7"></path><path d="M277.34,134.47c-2.41,3.53-5.43,7.75-8.63,9.34L252.42,161.7c13.69-1,31.23-21.8,38.77-30.35a1.29,1.29,0,0,1-.53.12c-3.36.75-7.41,1.73-13.1,3Z" style="fill:#f0997a"></path><path d="M297.86,122.67c2.81-2.33,7.72-5.59,8.25-9.37,1.07-7.69-.92-16.55,1.38-24.09a37.17,37.17,0,0,0,1.4-4.92c.18-1.12-.12-8.42-2.81-7.62-.29.08-.45.38-.6.64L299.84,88a92.72,92.72,0,0,0-6.29,13.71A19.72,19.72,0,0,1,285.91,112a125.57,125.57,0,0,1-18.56,10.38c-7.24,3.43-14.63,6.9-21,11.83-5.1,4-8,7.62-9.83,13.75-2.46,8.08-1.44,14.13,3.42,14.95,9,1.49,18.92-2.78,26.55-9.93C279.13,141.2,291.21,128.17,297.86,122.67Z" style="fill:#ffbda7"></path><path d="M315.33,64.63c-12.11-1.24-15.05,13.84-9.91,25.38,9.12,20.47,35.86,16.38,35.86,16.38L344,121.58s4.14-3.43,10.86-8.45c11.67-8.72,11.22-26,5.07-30.33C363,68,333.84,51.26,315.33,64.63Z" style="fill:#263238"></path><path d="M314.37,73.4c-4,1.62-8.21,10.11-9.59,27.61-1,12.54,3,18.09,6.59,20.11a23.66,23.66,0,0,0,9.92,2.48l-.39,3.05v2.51s10.39,19.21,27.72,25.37c3.76-12.44-5.9-25-5.9-25l3.13-18.91c.66,1.58,5.32,4.46,9.43.65,4.84-4.47,4.93-10.73,1.73-13.56s-7.91-1.4-10.22,2.52c-4.1,1-8.55-3.83-5.91-18.66-4.29-3.21-7.31.83-16.86-2C319.72,78.32,319.29,71.71,314.37,73.4Z" style="fill:#ffbda7"></path><path d="M314.37,73.4c-6.46,3.57-8.05,16.9-8.95,23.71-.71,6.4-1.21,13.26,1.68,19.2a11.3,11.3,0,0,0,4.27,4.81,11.37,11.37,0,0,1-4.5-4.69c-3.1-5.93-2.66-12.94-2-19.38,1-7,2.64-20.16,9.47-23.65Z" style="fill:#f0997a"></path><path d="M353.46,109a2.06,2.06,0,1,1-2-2.08A2,2,0,0,1,353.46,109Z" style="fill:#6930C3"></path><path d="M321.29,123.6c14,.46,18.4-4.92,20.39-9.54,0,0-.1,5.7-4.68,8.89-7.17,5-16.1,3.7-16.1,3.7Z" style="fill:#f0997a"></path><path d="M331,97.37a2.31,2.31,0,1,1-1.92-2.63A2.31,2.31,0,0,1,331,97.37Z" style="fill:#263238"></path><path d="M325.56,110.8c0,1.43-1.3.81-3,.78s-3.13.54-3.1-.89a2.87,2.87,0,0,1,3.1-2.54A2.82,2.82,0,0,1,325.56,110.8Z" style="fill:#b16668"></path><path d="M320.67,111.66c.54,0,1.2-.09,1.91-.08,1.68,0,2.95.65,3-.78a2.39,2.39,0,0,0-.41-1.35,4.37,4.37,0,0,0-1.73,0A3.56,3.56,0,0,0,320.67,111.66Z" style="fill:#f28f8f"></path><path d="M314.34,94.38a2.31,2.31,0,1,1-1.92-2.63A2.3,2.3,0,0,1,314.34,94.38Z" style="fill:#263238"></path><path d="M317.53,85l-5.27,1.93a2.69,2.69,0,0,0,3.52,1.7A2.92,2.92,0,0,0,317.53,85Z" style="fill:#263238"></path><path d="M326.69,86.52l3.85,4.17a2.74,2.74,0,0,1-4-.08A3,3,0,0,1,326.69,86.52Z" style="fill:#263238"></path><polygon points="321.63 92.22 318.25 106.14 311.79 102.36 321.63 92.22" style="fill:#f0997a"></polygon><path d="M320.07,84.5a2.45,2.45,0,0,0-1.37-1.31c-.18-.06-.41-.07-.5.13a.43.43,0,0,0,.19.52l.16.11.06,0a1.09,1.09,0,0,1,.11.1l.06,0,.18.24,0,.09a.8.8,0,0,1,.08.16s0,0,0,.06h0s0,.1,0,.15,0,.2.05.3,0,.07,0,.1a.86.86,0,0,1,0,.16s0,.11,0,.17a2.16,2.16,0,0,0,0,.36.93.93,0,0,0,.13.31c.06.14.29.3.45.22a.82.82,0,0,0,.36-.33,1.45,1.45,0,0,0,.09-.22,1.17,1.17,0,0,0,.07-.46A2.64,2.64,0,0,0,320.07,84.5Z" style="fill:#f0997a"></path><path d="M325.38,84.79a1.68,1.68,0,0,0-.67,0,1.78,1.78,0,0,0-.43.18,2,2,0,0,0-.65.64,3.05,3.05,0,0,0-.41.9,4.51,4.51,0,0,0-.09.53,1.94,1.94,0,0,0,0,.24.64.64,0,0,0,.1.32,2.85,2.85,0,0,0,.22.74c.05.11.28.26.38.11a1.82,1.82,0,0,0,.22-.6,2.46,2.46,0,0,0,.14-.38c0-.13,0-.27.06-.4a3.07,3.07,0,0,1,.22-.71,1.41,1.41,0,0,1,.32-.47l.24-.2c.12-.1.25-.14.38-.23s0-.06.16-.08.16-.19.12-.3A.36.36,0,0,0,325.38,84.79Z" style="fill:#f0997a"></path><path d="M362.4,111.62c-.37-1.66,1.52-6.19,1.59-8.82s-1.56-7.43-1-10.67-.31-4.26-1.24-3.79a8.52,8.52,0,0,0-3.53,5.79C358.07,96.75,362.4,111.62,362.4,111.62Z" style="fill:#f0997a"></path><path d="M348.82,121.3c-1.21-2.08-2.93-4.62-3.63-6-1.55-3.14-1.15-7.34-.35-10.63,1.49-6.15-.22-11.94-.59-18.11a8.65,8.65,0,0,1,.14-2.69,3.35,3.35,0,0,1,1.52-2.15,1.5,1.5,0,0,0,.45-.33,1.07,1.07,0,0,0,.11-.66,6.94,6.94,0,0,1,.2-2.53,2.8,2.8,0,0,1,1.65-1.83,5.68,5.68,0,0,1-.24-2.85,2,2,0,0,1,2.11-1.55,2.85,2.85,0,0,1,1.51,1.32,60.41,60.41,0,0,1,5,8.06c1.49,3,1.86,6.18,2.79,9.36s1.07,7,1.3,10.4a50.5,50.5,0,0,0,2,12.16c2.55,9,24.15,22.34,34.79,37.16,4.06,5.65,5.9,10.3,6,17.21.08,9.09-4.54,12.86-9.57,11.15a43.52,43.52,0,0,1-21.7-17.87C362.81,144.8,354,129,348.82,121.3Z" style="fill:#ffbda7"></path><path d="M348.82,121.3c-1.53-2.6-3.65-4.88-4.5-7.85a19.37,19.37,0,0,1,.29-9c1.45-5.88-.21-11.94-.36-17.89.28,3,.86,5.95,1.19,8.95a26.79,26.79,0,0,1-.31,9.06,19.42,19.42,0,0,0-.42,8.83c.75,2.88,2.78,5.3,4.11,8Z" style="fill:#f0997a"></path></g><g id="freepik--Lines--inject-23"><path d="M378.3,98.5c1.06-.76,2.13-1.51,3.18-2.28l2-1.47A6.73,6.73,0,0,0,385,93.36c.28-.36-.18-1.3-.68-1.11a19.23,19.23,0,0,0-3.91,2.47c-1.08.75-2.15,1.52-3.23,2.28l-6.65,4.71c-.8.57.37,2,1.13,1.5Z" style="fill:#e0e0e0"></path><path d="M381.1,106.81c1.28-.26,2.56-.51,3.83-.78l2.42-.53a7.37,7.37,0,0,0,2-.62c.4-.22.37-1.27-.17-1.3a19.69,19.69,0,0,0-4.57.65l-3.88.77-8,1.58c-1,.19-.5,2,.42,1.83Z" style="fill:#e0e0e0"></path><path d="M381.4,115.89c1.28.25,2.56.51,3.84.75l2.44.44a6.93,6.93,0,0,0,2.08.18c.46-.05.83-1,.34-1.26a19.06,19.06,0,0,0-4.47-1.14c-1.29-.28-2.59-.52-3.88-.78-2.66-.53-5.33-1.07-8-1.59-1-.19-1.22,1.67-.3,1.85Z" style="fill:#e0e0e0"></path></g></g></g><g id="freepik--speech-bubble--inject-23"><g id="freepik--speech-bubble--inject-23"><g id="freepik--speech-bubble--inject-23"><path d="M452.67,91.61A30.23,30.23,0,0,1,431,96.26l-3.38-.77a30.22,30.22,0,0,1,11.84-59.08l3.41.61a30.22,30.22,0,0,1,9.85,54.59Z" style="fill:#fff"></path><path d="M463.21,48.24A32.81,32.81,0,0,0,406,79.82l-5.87,8.34a1.91,1.91,0,0,0,2,3L412,88.91a32.81,32.81,0,0,0,51.2-40.67ZM452.67,91.61A30.23,30.23,0,0,1,431,96.26l-3.38-.77a30.22,30.22,0,0,1,11.84-59.08l3.41.61a30.22,30.22,0,0,1,9.85,54.59Z" style="fill:#e0e0e0"></path><path d="M452.67,91.61A30.23,30.23,0,0,1,431,96.26l-3.38-.77a30.22,30.22,0,0,1,11.84-59.08l3.41.61a30.22,30.22,0,0,1,9.85,54.59Z" style="fill:#fff;opacity:0.7000000000000001"></path></g><path d="M423.44,49.08a24.59,24.59,0,0,1,2.41-1.84A17.27,17.27,0,0,1,432,44.72a18.7,18.7,0,0,1,3.85-.37,16,16,0,0,1,5.13.78,11.59,11.59,0,0,1,4,2.23,9.82,9.82,0,0,1,2.55,3.48,11.18,11.18,0,0,1,.9,4.56,11.26,11.26,0,0,1-2.51,7.37,13.09,13.09,0,0,1-2.35,2.3l-2.41,1.82a19.3,19.3,0,0,0-2,1.68,3.34,3.34,0,0,0-1,1.86l-.75,4.72h-5.47l-.54-5.27a4.27,4.27,0,0,1,.44-2.67,8.18,8.18,0,0,1,1.69-2.1,20.61,20.61,0,0,1,2.35-1.84,21.75,21.75,0,0,0,2.43-1.94A10.43,10.43,0,0,0,440.19,59a6.06,6.06,0,0,0,.77-3.12,4.66,4.66,0,0,0-1.65-3.67,5.11,5.11,0,0,0-1.85-1,7.46,7.46,0,0,0-2.35-.36,10.45,10.45,0,0,0-3.12.39,11.16,11.16,0,0,0-2.17.91c-.59.33-1.1.63-1.51.9a2,2,0,0,1-1.1.4,1.77,1.77,0,0,1-1.68-1Zm6.05,34.58a5,5,0,0,1,.38-1.91,4.75,4.75,0,0,1,1-1.55,5,5,0,0,1,3.5-1.42,4.88,4.88,0,0,1,1.92.4,5.18,5.18,0,0,1,1.55,1,4.87,4.87,0,0,1,1.05,1.56,4.59,4.59,0,0,1,.38,1.91,4.71,4.71,0,0,1-.39,1.92,4.89,4.89,0,0,1-1,1.54,4.78,4.78,0,0,1-1.55,1,5,5,0,0,1-1.93.37,5,5,0,0,1-1.94-.37,4.75,4.75,0,0,1-1.55-1,4.93,4.93,0,0,1-1-1.54A5.14,5.14,0,0,1,429.49,83.66Z" style="fill:#6930C3"></path></g></g><g id="freepik--Bolts--inject-23"><g id="freepik--bolts--inject-23"><polygon points="423.05 235.74 406.2 217.38 401.28 224.48 388.12 209.65 401.45 235.05 407.13 226 423.05 235.74" style="fill:#6930C3"></polygon><polygon points="449.29 198.01 412.97 192.62 414.03 201.75 394.55 202.38 421.63 208.77 421.56 198.93 449.29 198.01" style="fill:#6930C3"></polygon><polygon points="449.29 198.01 412.97 192.62 414.03 201.75 394.55 202.38 421.63 208.77 421.56 198.93 449.29 198.01" style="fill:#fff;opacity:0.65"></polygon></g><g id="freepik--bolts--inject-23"><polygon points="221.15 249.22 240.53 264.88 244.34 257.13 259.56 269.84 242.61 246.7 238.33 256.49 221.15 249.22" style="fill:#6930C3"></polygon><polygon points="200.79 290.42 237.51 290.37 235.1 281.49 254.28 277.98 226.55 275.68 228.07 285.4 200.79 290.42" style="fill:#6930C3"></polygon><polygon points="200.79 290.42 237.51 290.37 235.1 281.49 254.28 277.98 226.55 275.68 228.07 285.4 200.79 290.42" style="fill:#fff;opacity:0.65"></polygon></g></g><g id="freepik--Symbols--inject-23"><g id="freepik--question-mark--inject-23"><path d="M200.51,209.21a29.72,29.72,0,0,1-2.12,3,22.32,22.32,0,0,1-6.2,5.2,24,24,0,0,1-4.34,1.9,20.7,20.7,0,0,1-6.25,1.14,14.34,14.34,0,0,1-5.43-.92,11.42,11.42,0,0,1-4.26-2.85,12.37,12.37,0,0,1-2.74-4.7,12.82,12.82,0,0,1-.75-5,13.92,13.92,0,0,1,.92-4.15,15.71,15.71,0,0,1,1.88-3.45l2.12-3a22.82,22.82,0,0,0,1.66-2.63,3.85,3.85,0,0,0,.46-2.44l-.89-5.52,6.37-2.12,2.59,5.62a4.8,4.8,0,0,1,.47,3.13,9.43,9.43,0,0,1-1.17,3,28.16,28.16,0,0,1-2.05,2.95,25.11,25.11,0,0,0-2.1,3.09,11.84,11.84,0,0,0-1.33,3.35,6.83,6.83,0,0,0,.27,3.76,5.39,5.39,0,0,0,1.28,2.14,5.67,5.67,0,0,0,2,1.28,6.88,6.88,0,0,0,2.54.41,9.56,9.56,0,0,0,2.86-.52,13.45,13.45,0,0,0,3.48-1.66,14.89,14.89,0,0,0,2.19-1.85q.84-.9,1.41-1.59a2.69,2.69,0,0,1,1.13-.87,2.2,2.2,0,0,1,2.32.42Zm-19.91-35.9a5.61,5.61,0,0,1,.28,2.26,5.55,5.55,0,0,1-.61,2.11,6.05,6.05,0,0,1-1.43,1.75,6.35,6.35,0,0,1-2.11,1.19,6.22,6.22,0,0,1-2.39.32,6.42,6.42,0,0,1-2.19-.55,5.41,5.41,0,0,1-1.79-1.31,5.34,5.34,0,0,1-1.16-2,5.26,5.26,0,0,1-.26-2.28,5.65,5.65,0,0,1,.65-2.11A6,6,0,0,1,171,171a6.14,6.14,0,0,1,2.1-1.16,6.51,6.51,0,0,1,2.4-.35,5.78,5.78,0,0,1,2.18.53,5.45,5.45,0,0,1,2.9,3.29Z" style="fill:#6930C3"></path><g style="opacity:0.30000000000000004"><path d="M200.51,209.21a29.72,29.72,0,0,1-2.12,3,22.32,22.32,0,0,1-6.2,5.2,24,24,0,0,1-4.34,1.9,20.7,20.7,0,0,1-6.25,1.14,14.34,14.34,0,0,1-5.43-.92,11.42,11.42,0,0,1-4.26-2.85,12.37,12.37,0,0,1-2.74-4.7,12.82,12.82,0,0,1-.75-5,13.92,13.92,0,0,1,.92-4.15,15.71,15.71,0,0,1,1.88-3.45l2.12-3a22.82,22.82,0,0,0,1.66-2.63,3.85,3.85,0,0,0,.46-2.44l-.89-5.52,6.37-2.12,2.59,5.62a4.8,4.8,0,0,1,.47,3.13,9.43,9.43,0,0,1-1.17,3,28.16,28.16,0,0,1-2.05,2.95,25.11,25.11,0,0,0-2.1,3.09,11.84,11.84,0,0,0-1.33,3.35,6.83,6.83,0,0,0,.27,3.76,5.39,5.39,0,0,0,1.28,2.14,5.67,5.67,0,0,0,2,1.28,6.88,6.88,0,0,0,2.54.41,9.56,9.56,0,0,0,2.86-.52,13.45,13.45,0,0,0,3.48-1.66,14.89,14.89,0,0,0,2.19-1.85q.84-.9,1.41-1.59a2.69,2.69,0,0,1,1.13-.87,2.2,2.2,0,0,1,2.32.42Zm-19.91-35.9a5.61,5.61,0,0,1,.28,2.26,5.55,5.55,0,0,1-.61,2.11,6.05,6.05,0,0,1-1.43,1.75,6.35,6.35,0,0,1-2.11,1.19,6.22,6.22,0,0,1-2.39.32,6.42,6.42,0,0,1-2.19-.55,5.41,5.41,0,0,1-1.79-1.31,5.34,5.34,0,0,1-1.16-2,5.26,5.26,0,0,1-.26-2.28,5.65,5.65,0,0,1,.65-2.11A6,6,0,0,1,171,171a6.14,6.14,0,0,1,2.1-1.16,6.51,6.51,0,0,1,2.4-.35,5.78,5.78,0,0,1,2.18.53,5.45,5.45,0,0,1,2.9,3.29Z" style="fill:#fff"></path></g></g><g id="freepik--question-mark--inject-23"><path d="M447.23,269.55a30,30,0,0,1,3.6-.61,22.14,22.14,0,0,1,8.06.71,23.7,23.7,0,0,1,4.41,1.72,20.35,20.35,0,0,1,5.23,3.62,14.24,14.24,0,0,1,3.19,4.48,11.66,11.66,0,0,1,1,5,12.52,12.52,0,0,1-1.39,5.27,12.73,12.73,0,0,1-3,4.05,13.93,13.93,0,0,1-3.57,2.29,16.46,16.46,0,0,1-3.78,1.11l-3.59.59a22.79,22.79,0,0,0-3,.69,3.81,3.81,0,0,0-2.05,1.4L449,304.43l-6-3,2.14-5.81a4.83,4.83,0,0,1,1.87-2.54A9.6,9.6,0,0,1,450,291.8a27.75,27.75,0,0,1,3.53-.64,26.28,26.28,0,0,0,3.68-.7,12.18,12.18,0,0,0,3.3-1.43,6.89,6.89,0,0,0,2.47-2.85,5.41,5.41,0,0,0,.6-2.42,5.54,5.54,0,0,0-.5-2.32,6.81,6.81,0,0,0-1.51-2.08,9.77,9.77,0,0,0-2.39-1.66,13.3,13.3,0,0,0-3.64-1.28,13.72,13.72,0,0,0-2.85-.24c-.82,0-1.53.06-2.12.12a2.58,2.58,0,0,1-1.42-.18,2.19,2.19,0,0,1-1.34-1.94ZM435.92,309a5.83,5.83,0,0,1,1.4-1.79,5.47,5.47,0,0,1,1.93-1.06,6.17,6.17,0,0,1,2.25-.23,6.24,6.24,0,0,1,2.33.66,5.93,5.93,0,0,1,1.91,1.46,6.32,6.32,0,0,1,1.17,1.93,5.72,5.72,0,0,1,.34,2.19,5.33,5.33,0,0,1-.57,2.21,5.41,5.41,0,0,1-1.43,1.8,5.55,5.55,0,0,1-1.95,1,6,6,0,0,1-2.24.21,6.2,6.2,0,0,1-2.31-.66,6.53,6.53,0,0,1-1.93-1.45,5.71,5.71,0,0,1-1.18-1.92,5.58,5.58,0,0,1-.31-2.16A5.44,5.44,0,0,1,435.92,309Z" style="fill:#6930C3"></path><g style="opacity:0.30000000000000004"><path d="M447.23,269.55a30,30,0,0,1,3.6-.61,22.14,22.14,0,0,1,8.06.71,23.7,23.7,0,0,1,4.41,1.72,20.35,20.35,0,0,1,5.23,3.62,14.24,14.24,0,0,1,3.19,4.48,11.66,11.66,0,0,1,1,5,12.52,12.52,0,0,1-1.39,5.27,12.73,12.73,0,0,1-3,4.05,13.93,13.93,0,0,1-3.57,2.29,16.46,16.46,0,0,1-3.78,1.11l-3.59.59a22.79,22.79,0,0,0-3,.69,3.81,3.81,0,0,0-2.05,1.4L449,304.43l-6-3,2.14-5.81a4.83,4.83,0,0,1,1.87-2.54A9.6,9.6,0,0,1,450,291.8a27.75,27.75,0,0,1,3.53-.64,26.28,26.28,0,0,0,3.68-.7,12.18,12.18,0,0,0,3.3-1.43,6.89,6.89,0,0,0,2.47-2.85,5.41,5.41,0,0,0,.6-2.42,5.54,5.54,0,0,0-.5-2.32,6.81,6.81,0,0,0-1.51-2.08,9.77,9.77,0,0,0-2.39-1.66,13.3,13.3,0,0,0-3.64-1.28,13.72,13.72,0,0,0-2.85-.24c-.82,0-1.53.06-2.12.12a2.58,2.58,0,0,1-1.42-.18,2.19,2.19,0,0,1-1.34-1.94ZM435.92,309a5.83,5.83,0,0,1,1.4-1.79,5.47,5.47,0,0,1,1.93-1.06,6.17,6.17,0,0,1,2.25-.23,6.24,6.24,0,0,1,2.33.66,5.93,5.93,0,0,1,1.91,1.46,6.32,6.32,0,0,1,1.17,1.93,5.72,5.72,0,0,1,.34,2.19,5.33,5.33,0,0,1-.57,2.21,5.41,5.41,0,0,1-1.43,1.8,5.55,5.55,0,0,1-1.95,1,6,6,0,0,1-2.24.21,6.2,6.2,0,0,1-2.31-.66,6.53,6.53,0,0,1-1.93-1.45,5.71,5.71,0,0,1-1.18-1.92,5.58,5.58,0,0,1-.31-2.16A5.44,5.44,0,0,1,435.92,309Z" style="fill:#fff"></path></g></g></g><g id="freepik--Eyes--inject-23"><g id="freepik--Eye--inject-23"><path d="M207.52,68.05a9.28,9.28,0,0,0-6.2-4,18.84,18.84,0,0,0-8.42.92,58.76,58.76,0,0,0-9.08,3.51,48.34,48.34,0,0,0-4.94,2.72c-.79.51-1.52,1.1-2.3,1.62a2.79,2.79,0,0,0-1.41,1.89,1.05,1.05,0,0,0,.06.47,8,8,0,0,0,2.52,2.57,25.69,25.69,0,0,0,3.33,2.12,28,28,0,0,0,7.44,2.6,28.66,28.66,0,0,0,7.79.48A19.77,19.77,0,0,0,204.06,81,9.15,9.15,0,0,0,207.52,68.05ZM196.9,65.28c3-.45,6.07-.16,8.32,2.13a8.67,8.67,0,0,1,.69.79s0,0,0,0a5.74,5.74,0,0,1-.74,3.26,2.92,2.92,0,0,0-1.46-2.33,3.78,3.78,0,0,0-3.45-.15,5.12,5.12,0,0,0-2.45,2.43,5.22,5.22,0,0,0-.64,3.58,2.65,2.65,0,0,0,1,1.48,2.27,2.27,0,0,0,.85.37l-.34.11a7,7,0,0,1-3.26.14,4.08,4.08,0,0,1-2.55-1.45c-.63-.93-.38-2.24-.15-3.26a13.33,13.33,0,0,1,.87-2.61A12.93,12.93,0,0,1,195.34,67C195.82,66.37,196.38,65.83,196.9,65.28Zm7.36,14a15.13,15.13,0,0,1-7.14,2.23,27,27,0,0,1-7.13-.17,27.36,27.36,0,0,1-7.75-2.4,28.72,28.72,0,0,1-3.53-2c-.57-.38-1.13-.78-1.69-1.21-.33-.26-1.22-.75-1.16-1.26a1,1,0,0,1,.3-.53,13.8,13.8,0,0,1,3.39-2c1.19-.67,2.39-1.32,3.61-1.93a59.78,59.78,0,0,1,7.33-3c1.42-.47,3-1,4.62-1.38a14.13,14.13,0,0,0-2.6,4,13,13,0,0,0-1,3.23,4.39,4.39,0,0,0,.41,3.22c1.21,1.86,4,2.34,6,2.08a10.35,10.35,0,0,0,6-3.19c1.19-1.21,2.71-3,3.07-4.86a7.37,7.37,0,0,1,.53,3.35A8,8,0,0,1,204.26,79.33Z" style="fill:#263238"></path><path d="M205.17,71.5a2.92,2.92,0,0,0-1.46-2.33,3.78,3.78,0,0,0-3.45-.15,5.12,5.12,0,0,0-2.45,2.43,5.22,5.22,0,0,0-.64,3.58,2.65,2.65,0,0,0,1,1.48,2.27,2.27,0,0,0,.85.37l-.34.11a7,7,0,0,1-3.26.14,4.08,4.08,0,0,1-2.55-1.45c-.63-.93-.38-2.24-.15-3.26a13.33,13.33,0,0,1,.87-2.61A12.93,12.93,0,0,1,195.34,67c.48-.61,1-1.15,1.56-1.7,3-.45,6.07-.16,8.32,2.13a8.67,8.67,0,0,1,.69.79s0,0,0,0A5.74,5.74,0,0,1,205.17,71.5Z" style="fill:#455a64"></path><path d="M207.53,73.46a8,8,0,0,1-3.27,5.87,15.13,15.13,0,0,1-7.14,2.23,27,27,0,0,1-7.13-.17,27.36,27.36,0,0,1-7.75-2.4,28.72,28.72,0,0,1-3.53-2c-.57-.38-1.13-.78-1.69-1.21-.33-.26-1.22-.75-1.16-1.26a1,1,0,0,1,.3-.53,13.8,13.8,0,0,1,3.39-2c1.19-.67,2.39-1.32,3.61-1.93a59.78,59.78,0,0,1,7.33-3c1.42-.47,3-1,4.62-1.38a14.13,14.13,0,0,0-2.6,4,13,13,0,0,0-1,3.23,4.39,4.39,0,0,0,.41,3.22c1.21,1.86,4,2.34,6,2.08a10.35,10.35,0,0,0,6-3.19c1.19-1.21,2.71-3,3.07-4.86A7.37,7.37,0,0,1,207.53,73.46Z" style="fill:#e0e0e0"></path><path d="M208.91,65.63a8.16,8.16,0,0,0-.66-1.19,10.18,10.18,0,0,0-1.07-1.21,11.81,11.81,0,0,0-2.34-1.75,15.23,15.23,0,0,0-5.63-1.87A23.29,23.29,0,0,0,186.38,62a48,48,0,0,0-7.55,4.44c-.13.09,0,.47.16.39,4.19-2,8.16-4.44,12.68-5.67a17.9,17.9,0,0,1,11.25.39A12.72,12.72,0,0,1,205.65,63a12.13,12.13,0,0,1,1.19.92,13.69,13.69,0,0,1,1.86,2C208.86,66.11,209,65.79,208.91,65.63Z" style="fill:#263238"></path></g><g id="freepik--eye--inject-23"><path d="M96.12,305.6a9.23,9.23,0,0,0-7-2.33,18.79,18.79,0,0,0-7.91,3,57.32,57.32,0,0,0-7.9,5.69,46.8,46.8,0,0,0-4.09,3.88c-.64.69-1.2,1.45-1.82,2.14a2.76,2.76,0,0,0-.88,2.19.78.78,0,0,0,.17.43,7.86,7.86,0,0,0,3.09,1.86,24.44,24.44,0,0,0,3.75,1.2,27.7,27.7,0,0,0,7.86.65A28.67,28.67,0,0,0,89,322.81,19.65,19.65,0,0,0,96,319,9.14,9.14,0,0,0,96.12,305.6Zm-.31,11.74a15.13,15.13,0,0,1-6.34,4,26.84,26.84,0,0,1-7,1.63,27.19,27.19,0,0,1-8.1-.37,28,28,0,0,1-3.92-1.06c-.65-.22-1.3-.47-1.94-.74-.39-.18-1.38-.42-1.44-.93a1,1,0,0,1,.15-.59A13.65,13.65,0,0,1,70,316.42c1-.95,2-1.88,3-2.78a59.78,59.78,0,0,1,6.32-4.77c1.26-.82,2.65-1.73,4.13-2.5A14.46,14.46,0,0,0,82,310.91a13.12,13.12,0,0,0-.12,3.37,4.43,4.43,0,0,0,1.21,3c1.64,1.49,4.43,1.26,6.33.5a10.35,10.35,0,0,0,5-4.6c.85-1.47,1.87-3.6,1.75-5.47a7.39,7.39,0,0,1,1.36,3.1A8,8,0,0,1,95.81,317.34Z" style="fill:#263238"></path><path d="M92.9,313.31c-.14.05-.38.63-.47.76a8.34,8.34,0,0,1-.58.75,8.87,8.87,0,0,1-1.37,1.3,7.06,7.06,0,0,1-3.73,1.31,4.12,4.12,0,0,1-2.84-.76c-.84-.74-.93-2.07-1-3.12a13.25,13.25,0,0,1,.19-2.74,12.77,12.77,0,0,1,.94-3.18c.31-.71.71-1.37,1.08-2,.09-.15.77-.3.95-.37.33-.12.67-.23,1-.32a10.87,10.87,0,0,1,2.11-.38,5.24,5.24,0,0,1,3.79,1,3.88,3.88,0,0,0-2.37.75,5.61,5.61,0,0,0-2.18,2.45,3.57,3.57,0,0,0,.12,3.2,4,4,0,0,0,1,1.12,3,3,0,0,0,1.44.61A4.21,4.21,0,0,0,92.9,313.31Z" style="fill:#455a64"></path><path d="M97.5,310.83a8,8,0,0,1-1.69,6.51,15.13,15.13,0,0,1-6.34,4,26.84,26.84,0,0,1-7,1.63,27.19,27.19,0,0,1-8.1-.37,28,28,0,0,1-3.92-1.06c-.65-.22-1.3-.47-1.94-.74-.39-.18-1.38-.42-1.44-.93a1,1,0,0,1,.15-.59A13.65,13.65,0,0,1,70,316.42c1-.95,2-1.88,3-2.78a59.78,59.78,0,0,1,6.32-4.77c1.26-.82,2.65-1.73,4.13-2.5A14.46,14.46,0,0,0,82,310.91a13.12,13.12,0,0,0-.12,3.37,4.43,4.43,0,0,0,1.21,3c1.64,1.49,4.43,1.26,6.33.5a10.35,10.35,0,0,0,5-4.6c.85-1.47,1.87-3.6,1.75-5.47A7.39,7.39,0,0,1,97.5,310.83Z" style="fill:#e0e0e0"></path><path d="M96.86,302.9a10.82,10.82,0,0,0-.94-1,11.19,11.19,0,0,0-1.34-.9,12.35,12.35,0,0,0-2.71-1.11,15.15,15.15,0,0,0-5.92-.38,23.28,23.28,0,0,0-11.81,5.58,46.94,46.94,0,0,0-6.17,6.2c-.11.12.11.46.25.34,3.55-3,6.77-6.36,10.83-8.69a18,18,0,0,1,11-2.47,14.17,14.17,0,0,1,3,.71,14,14,0,0,1,1.38.6,12.81,12.81,0,0,1,2.29,1.41C96.93,303.39,97,303,96.86,302.9Z" style="fill:#263238"></path></g><g id="freepik--eye--inject-23"><path d="M98.12,139.93A7.15,7.15,0,0,0,93.2,137a14.63,14.63,0,0,0-6.47,1,45.27,45.27,0,0,0-6.87,3,33.67,33.67,0,0,0-3.72,2.28c-.59.41-1.13.9-1.71,1.33a2.12,2.12,0,0,0-1,1.51.68.68,0,0,0,.06.35,6,6,0,0,0,2,1.9A18.58,18.58,0,0,0,78.15,150,21.67,21.67,0,0,0,84,151.72a22.14,22.14,0,0,0,6,.08A15.24,15.24,0,0,0,95.92,150,7.05,7.05,0,0,0,98.12,139.93ZM96,148.75a11.76,11.76,0,0,1-5.43,2A21.45,21.45,0,0,1,79,149.28a22.35,22.35,0,0,1-2.8-1.43c-.46-.27-.9-.57-1.34-.88-.28-.19-1-.53-.95-.93a.84.84,0,0,1,.21-.42,10.91,10.91,0,0,1,2.54-1.69c.9-.56,1.8-1.1,2.72-1.61a45.91,45.91,0,0,1,5.55-2.6c1.08-.42,2.28-.88,3.51-1.23a11.33,11.33,0,0,0-1.86,3.19,10,10,0,0,0-.63,2.53,3.39,3.39,0,0,0,.43,2.47c1,1.39,3.14,1.66,4.7,1.39a8,8,0,0,0,4.51-2.68,8.31,8.31,0,0,0,2.19-3.85,5.77,5.77,0,0,1,.53,2.56A6.18,6.18,0,0,1,96,148.75Z" style="fill:#263238"></path><path d="M96.59,141.59A2.24,2.24,0,0,0,95,140.21a2.91,2.91,0,0,0-2.57.68,4,4,0,0,0-1.25,2.36c-.22,1.27-.15,3,1.43,3.31A4.12,4.12,0,0,1,89,147a3.57,3.57,0,0,1-1.67-1,2.43,2.43,0,0,1-.41-2.28,13.67,13.67,0,0,1,.77-2.58,4.83,4.83,0,0,1,1.78-2.52,6.22,6.22,0,0,1,6.68.69,1.66,1.66,0,0,1,.62,1C96.75,140.73,96.5,141.25,96.59,141.59Z" style="fill:#455a64"></path><path d="M98.33,144.1A6.18,6.18,0,0,1,96,148.75a11.76,11.76,0,0,1-5.43,2A21.45,21.45,0,0,1,79,149.28a22.35,22.35,0,0,1-2.8-1.43c-.46-.27-.9-.57-1.34-.88-.28-.19-1-.53-.95-.93a.84.84,0,0,1,.21-.42,10.91,10.91,0,0,1,2.54-1.69c.9-.56,1.8-1.1,2.72-1.61a45.91,45.91,0,0,1,5.55-2.6c1.08-.42,2.28-.88,3.51-1.23a11.33,11.33,0,0,0-1.86,3.19,10,10,0,0,0-.63,2.53,3.39,3.39,0,0,0,.43,2.47c1,1.39,3.14,1.66,4.7,1.39a8,8,0,0,0,4.51-2.68,8.31,8.31,0,0,0,2.19-3.85A5.77,5.77,0,0,1,98.33,144.1Z" style="fill:#e0e0e0"></path><path d="M99.11,138a6.89,6.89,0,0,0-.55-.89,7.38,7.38,0,0,0-.87-.9A8.93,8.93,0,0,0,95.82,135a11.74,11.74,0,0,0-4.41-1.24A18,18,0,0,0,81.6,136a36,36,0,0,0-5.66,3.7c-.1.08,0,.36.13.3,3.16-1.7,6.14-3.73,9.58-4.83a13.84,13.84,0,0,1,8.7-.11,10.35,10.35,0,0,1,2.16,1c.32.21.64.43.95.67a10.74,10.74,0,0,1,1.5,1.44C99.09,138.38,99.19,138.13,99.11,138Z" style="fill:#263238"></path></g><g id="freepik--eye--inject-23"><path d="M158.76,406.16a7.13,7.13,0,0,0-5.15-2.47,14.54,14.54,0,0,0-6.36,1.54,44.82,44.82,0,0,0-6.6,3.59,36.94,36.94,0,0,0-3.52,2.58c-.55.46-1,1-1.6,1.46a2.18,2.18,0,0,0-.89,1.59.75.75,0,0,0,.09.35,6,6,0,0,0,2.19,1.72,18.72,18.72,0,0,0,2.76,1.29,21.35,21.35,0,0,0,5.95,1.26,22.11,22.11,0,0,0,6-.41,15.07,15.07,0,0,0,5.75-2.25A7.06,7.06,0,0,0,158.76,406.16Zm-1.38,9a11.77,11.77,0,0,1-5.25,2.42,21.45,21.45,0,0,1-11.65-.5,22.14,22.14,0,0,1-2.9-1.2,16,16,0,0,1-1.41-.76c-.29-.17-1-.45-1-.85a.86.86,0,0,1,.18-.43,10.81,10.81,0,0,1,2.39-1.9c.85-.62,1.7-1.25,2.58-1.83a47.28,47.28,0,0,1,5.31-3,35.79,35.79,0,0,1,3.4-1.51,11,11,0,0,0-1.59,3.33,9.73,9.73,0,0,0-.42,2.57,3.39,3.39,0,0,0,.63,2.43c1.11,1.3,3.27,1.39,4.8,1a8,8,0,0,0,4.27-3.05,8.26,8.26,0,0,0,1.87-4,5.71,5.71,0,0,1,.74,2.51A6.17,6.17,0,0,1,157.38,415.13Z" style="fill:#263238"></path><path d="M155.3,412a6.81,6.81,0,0,0,1-1.17.6.6,0,0,0,.15-.43,4.06,4.06,0,0,1-2.53-.16,2.7,2.7,0,0,1-1.46-2,2.53,2.53,0,0,1,1-2.29,4.71,4.71,0,0,1,2.37-.72,6.93,6.93,0,0,1-1.39-.39,8.58,8.58,0,0,0-1.6-.14,5.76,5.76,0,0,0-2.44.33,5.11,5.11,0,0,0-1.58,2,8.22,8.22,0,0,0-.86,4.82,2,2,0,0,0,1,1.62,3.37,3.37,0,0,0,1.94.41A7.5,7.5,0,0,0,155.3,412Z" style="fill:#455a64"></path><path d="M159.31,410.3a6.17,6.17,0,0,1-1.93,4.83,11.77,11.77,0,0,1-5.25,2.42,21.45,21.45,0,0,1-11.65-.5,22.14,22.14,0,0,1-2.9-1.2,16,16,0,0,1-1.41-.76c-.29-.17-1-.45-1-.85a.86.86,0,0,1,.18-.43,10.81,10.81,0,0,1,2.39-1.9c.85-.62,1.7-1.25,2.58-1.83a47.28,47.28,0,0,1,5.31-3,35.79,35.79,0,0,1,3.4-1.51,11,11,0,0,0-1.59,3.33,9.73,9.73,0,0,0-.42,2.57,3.39,3.39,0,0,0,.63,2.43c1.11,1.3,3.27,1.39,4.8,1a8,8,0,0,0,4.27-3.05,8.26,8.26,0,0,0,1.87-4A5.71,5.71,0,0,1,159.31,410.3Z" style="fill:#e0e0e0"></path><path d="M159.59,404.17a6.57,6.57,0,0,0-.63-.84,8,8,0,0,0-.93-.82,8.94,8.94,0,0,0-2-1.12,11.78,11.78,0,0,0-4.5-.87,18,18,0,0,0-9.59,3.13,36.91,36.91,0,0,0-5.34,4.15c-.09.08,0,.36.16.28,3-1.95,5.81-4.21,9.15-5.6a13.85,13.85,0,0,1,8.66-.82,10.31,10.31,0,0,1,2.23.83c.35.18.68.38,1,.59a10.6,10.6,0,0,1,1.61,1.31C159.6,404.55,159.68,404.28,159.59,404.17Z" style="fill:#263238"></path></g></g><g id="freepik--Virus--inject-23"><g id="freepik--virus--inject-23"><path d="M241.9,117.45h0l0,0v0l0,0h0l0,0a.34.34,0,0,0-.12-.06.28.28,0,0,0-.13,0c-.14,0-.29.19-.38.43l-.1,0c-.37-.09-.88-.22-1.4-.37a1.25,1.25,0,0,1-.83-.59,7.53,7.53,0,0,0,0-2.12.37.37,0,0,1,.17-.22,1.18,1.18,0,0,1,.38-.15h0c.07.21.19.37.31.38a.17.17,0,0,0,.1,0,.18.18,0,0,0,.09,0h0l0,0h0v0h0a.85.85,0,0,0,0-.52.9.9,0,0,0-.24-.47h0l0,0h-.19a.18.18,0,0,0-.09,0c-.1.06-.14.25-.12.47h0a1.81,1.81,0,0,1-.42,0,.3.3,0,0,1-.24-.14,7.19,7.19,0,0,0-.39-1.16,8.18,8.18,0,0,0-.52-1c0-.21.05-.45.52-.84a11,11,0,0,1,.93-.76l0,0c.23.25.49.38.66.33a.35.35,0,0,0,.14-.06.38.38,0,0,0,.1-.12l0,0v0a.43.43,0,0,0,0,0v0s0,0,0,0h0a1.27,1.27,0,0,0-.3-.75,1.31,1.31,0,0,0-.63-.5h-.18a.27.27,0,0,0-.14.07.26.26,0,0,0-.1.11.8.8,0,0,0,.12.73l0,0c-.39.28-.43.29-1,.66s-.75.35-.94.26a7.52,7.52,0,0,0-1.54-1.33,1.38,1.38,0,0,1,.18-.93,4,4,0,0,1,.25-.54v0a.57.57,0,0,0,.5,0s.06,0,.07-.09a.42.42,0,0,0,0-.1v0h0a.08.08,0,0,0,0,0v0h0a1,1,0,0,0-.41-.4.94.94,0,0,0-.56-.14h0l0,0h0l0,0a.27.27,0,0,0-.07.08.19.19,0,0,0,0,.1c0,.12.09.29.27.43l0,0a3.44,3.44,0,0,1-.34.49,1.32,1.32,0,0,1-.7.64,7.73,7.73,0,0,0-1.87-.61c-.21-.19-.33-.64-.3-1.42s.08-1.51.13-2v-.08a.87.87,0,0,0,.74-.29.42.42,0,0,0,0-.15.32.32,0,0,0,0-.17s0,0,0,0v0l0,0,0,0,0,0h0a1.34,1.34,0,0,0-.79-.3,1.46,1.46,0,0,0-.84.14h0a.05.05,0,0,0,0,0l0,0s0,0,0,0v0l0,0a.28.28,0,0,0-.05.16.3.3,0,0,0,0,.16c0,.18.32.34.67.42v.08c-.05.53-.13,1.27-.25,2s-.32,1.2-.56,1.34a7.86,7.86,0,0,0-1.8.23.78.78,0,0,1-.61-.54c-.17-.37-.31-.73-.4-1v0c.22-.11.37-.26.37-.39a.49.49,0,0,0,0-.12l-.06-.1,0,0h0l0,0h0a1,1,0,0,0-.6,0,1,1,0,0,0-.51.34h0s0,0,0,0h0s0,0,0,0v0a.25.25,0,0,0,0,.12.21.21,0,0,0,.06.1.55.55,0,0,0,.49.09v.05a10,10,0,0,1,.29,1,.77.77,0,0,1-.16.8,7.57,7.57,0,0,0-1.56.93c-.3,0-.83-.26-1.56-1-.14-.14-.65-.67-1.11-1.17l-.1-.1c.27-.31.41-.63.33-.83a.46.46,0,0,0-.09-.15.44.44,0,0,0-.15-.1l0,0h-.16a1.45,1.45,0,0,0-.83.42,1.48,1.48,0,0,0-.49.79h0a.43.43,0,0,1,0,.05v0a.15.15,0,0,0,0,.07h0a.08.08,0,0,1,0,0,.51.51,0,0,0,.09.16.44.44,0,0,0,.15.1c.19.1.52,0,.85-.25l.1.1c.45.51.83,1,1,1.26.71.83.95,1.39.86,1.67a8.22,8.22,0,0,0-.91,1.3c-.23.15-.66.16-1.33-.08s-.62-.17-1.07-.36l-.14-.06a.62.62,0,0,0-.05-.59.26.26,0,0,0-.1-.07.31.31,0,0,0-.13,0h-.14a1.08,1.08,0,0,0-.43.53,1.17,1.17,0,0,0-.1.68h0l0,0v0l0,0h0v0l.11.08a.3.3,0,0,0,.13,0c.14,0,.31-.13.45-.35l.14.06c.45.2.39.16,1,.48s.92.63,1,.9a7.37,7.37,0,0,0-.36,1.87.43.43,0,0,1-.26.37,1.51,1.51,0,0,1-.41.07h0a.52.52,0,0,0-.23-.43l-.1,0-.1,0h0l0,0h0v0h0a.87.87,0,0,0-.13.51.85.85,0,0,0,.15.5h0l0,0v0l0,0h0a.16.16,0,0,0,.1,0l.1,0a.54.54,0,0,0,.21-.44h0a2.6,2.6,0,0,1,.42,0c.16,0,.24.23.27.4a7.43,7.43,0,0,0,.36,1.72c-.09.27-.44.58-1.11.92s-1.4.67-1.9.89l-.08,0c-.14-.23-.32-.38-.46-.37a.31.31,0,0,0-.13,0,.26.26,0,0,0-.11.07l0,0h0l0,0v0l0,0h0a1.17,1.17,0,0,0,.1.68,1.14,1.14,0,0,0,.43.53h0l0,0h0l0,0h0a.28.28,0,0,0,.13,0A.3.3,0,0,0,221,121a.65.65,0,0,0,.05-.59l.08,0c.5-.21,1.2-.5,1.94-.78a2.11,2.11,0,0,1,1.43-.19,7.7,7.7,0,0,0,1.09,1.53c.07.19,0,.45-.37.92s-.46.59-.79,1l0,0a.8.8,0,0,0-.72-.2.47.47,0,0,0-.12.09.35.35,0,0,0-.08.13s0,0,0,0h0a.11.11,0,0,0,0,.05v0s0,0,0,0h0a1.31,1.31,0,0,0,.43.68,1.34,1.34,0,0,0,.72.37h.17a.38.38,0,0,0,.13-.09.35.35,0,0,0,.08-.13c.07-.17,0-.44-.26-.7l0,0c.33-.36.38-.38.88-.87s.67-.49.86-.46a7.55,7.55,0,0,0,1.76,1,1.34,1.34,0,0,1,0,1,4.27,4.27,0,0,1-.14.59v0a.6.6,0,0,0-.5.09.41.41,0,0,0,0,.09.25.25,0,0,0,0,.12v0h0s0,0,0,0h0l0,0h0a.9.9,0,0,0,.48.32.88.88,0,0,0,.57,0h.05l0,0h0l.06-.1a.41.41,0,0,0,0-.11c0-.12-.14-.26-.35-.36l0,0c.12-.35.18-.42.23-.56a1.4,1.4,0,0,1,.59-.78,7.8,7.8,0,0,0,1.93.25c.24.15.45.57.56,1.34s.21,1.52.26,2a.28.28,0,0,1,0,.09c-.35.07-.62.24-.67.42a.41.41,0,0,0,0,.16.75.75,0,0,0,0,.16s0,0,0,0h0l0,0,0,0,0,0h0a1.63,1.63,0,0,0,1.63-.16h0l0,0s0,0,0,0l0,0h0l0,0a1,1,0,0,0,0-.17.53.53,0,0,0-.05-.15.87.87,0,0,0-.74-.29.22.22,0,0,1,0-.08c0-.54-.11-1.29-.14-2.06a1.94,1.94,0,0,1,.29-1.43,7.55,7.55,0,0,0,1.64-.5l.15-.07a.84.84,0,0,1,.64.43,10.72,10.72,0,0,1,.58.91l0,0c-.19.15-.31.32-.29.45a.36.36,0,0,0,0,.11.24.24,0,0,0,.08.09h0l0,0h0a1,1,0,0,0,.59-.15,1,1,0,0,0,.43-.43h0s0,0,0,0v-.06h0v0a.2.2,0,0,0,0-.11.24.24,0,0,0-.08-.09.53.53,0,0,0-.5,0l0,0c-.14-.24-.31-.59-.48-1a.85.85,0,0,1,0-.77,7.24,7.24,0,0,0,1.41-1.23c.27-.09.73,0,1.38.47s1.26.86,1.69,1.17l.07,0c-.21.35-.28.7-.16.87a.53.53,0,0,0,.12.14.46.46,0,0,0,.16.07h.2a1.48,1.48,0,0,0,.73-.57,1.51,1.51,0,0,0,.34-.87h0a.07.07,0,0,0,0,0v0a.08.08,0,0,0,0-.06v0s0,0,0,0a.49.49,0,0,0-.12-.13.6.6,0,0,0-.16-.08c-.21,0-.51.12-.79.41l-.07,0c-.43-.32-1-.77-1.61-1.26s-.86-.9-.86-1.18a7.79,7.79,0,0,0,.74-1.64,1.2,1.2,0,0,1,1-.18c.54.07,1.06.17,1.43.25l.09,0a.64.64,0,0,0,.16.57l.12,0a.28.28,0,0,0,.13,0h0l0,0h0l0,0h0a1.13,1.13,0,0,0,.31-.61A1.08,1.08,0,0,0,241.9,117.45Zm-16-.76c-.6,0-1.11-.61-1.14-1.42a1.31,1.31,0,0,1,1-1.49c.61,0,1.12.62,1.15,1.42A1.31,1.31,0,0,1,225.86,116.69Zm1.3,3.29a.71.71,0,0,1-.91-1,.71.71,0,0,1,.91,1Zm1-7.9a.82.82,0,1,1,0-1.32A1,1,0,0,1,228.17,112.08Zm.79,4.32a.8.8,0,0,1,1.08.24.79.79,0,0,1,.07,1.1.8.8,0,0,1-1.08-.24A.79.79,0,0,1,229,116.4Zm1.89,5.19a1,1,0,0,1-1.24.42c-.55-.18-.89-.66-.75-1.07a.94.94,0,0,1,1.24-.43C230.65,120.69,231,121.17,230.85,121.59Zm0-7.69a.84.84,0,0,1-1.16,0,1,1,0,0,1,1.48-1.12A.84.84,0,0,1,230.81,113.9Zm.13-3.41a.63.63,0,0,1-.76-.41c0-.28.23-.56.61-.61a.61.61,0,0,1,.75.41C231.58,110.16,231.31,110.43,230.94,110.49Zm1.47,8.05a.62.62,0,0,1,.17-.84.54.54,0,1,1,.68.78A.61.61,0,0,1,232.41,118.54Zm1.08,3.36a.63.63,0,0,1-.83-.22.64.64,0,0,1,.44-.74.63.63,0,0,1,.83.22C234,121.42,233.84,121.75,233.49,121.9Zm.6-5.9a1.09,1.09,0,1,1,.12-1.3A.94.94,0,0,1,234.09,116Zm-.18-4.09a.84.84,0,1,1,1.34,0A1,1,0,0,1,233.91,111.91Zm2.71,6.84a.82.82,0,1,1-.34-1.26A.93.93,0,0,1,236.62,118.75Zm.38-3.3c-.32.08-.66-.2-.76-.62a.7.7,0,0,1,.38-.9c.31-.08.66.2.76.62A.7.7,0,0,1,237,115.45Z" style="fill:#6930C3"></path></g><g id="freepik--virus--inject-23"><path d="M428.9,165h0v0h0l0,0h0l-.07,0h-.07c-.08,0-.16.11-.22.25h-.06l-.81-.22c-.27-.08-.43-.2-.48-.34a4.23,4.23,0,0,0,0-1.23.26.26,0,0,1,.1-.13,1.18,1.18,0,0,1,.23-.09h0c0,.12.11.21.18.22s0,0,.05,0l.06,0h0l0,0h0a.45.45,0,0,0,0-.31.46.46,0,0,0-.14-.27h-.12l-.05,0c-.06,0-.08.15-.07.28h0a.88.88,0,0,1-.24,0,.19.19,0,0,1-.14-.08,5.25,5.25,0,0,0-.22-.67,3.91,3.91,0,0,0-.31-.57c0-.12,0-.26.3-.49l.55-.44,0,0c.14.14.29.22.39.19a.13.13,0,0,0,.08,0,.19.19,0,0,0,.06-.07v0h0a0,0,0,0,0,0,0v0h0a.79.79,0,0,0-.18-.44.74.74,0,0,0-.37-.29h-.1a.12.12,0,0,0-.08,0,.12.12,0,0,0-.06.06c-.06.09,0,.26.07.43l0,0c-.23.16-.25.17-.59.38s-.44.21-.54.15a4.37,4.37,0,0,0-.9-.77.79.79,0,0,1,.1-.54,2.83,2.83,0,0,1,.15-.32h0a.32.32,0,0,0,.29,0l0,0a.14.14,0,0,0,0-.06h0v0h0v0h0a.49.49,0,0,0-.24-.23.56.56,0,0,0-.32-.09h-.07l-.05.05a.13.13,0,0,0,0,.06c0,.07.05.16.15.25h0a2.36,2.36,0,0,1-.19.29c-.15.23-.29.35-.41.37a4.62,4.62,0,0,0-1.09-.35c-.12-.11-.19-.38-.17-.83s0-.87.07-1.18v-.05c.21,0,.38-.07.43-.17a.2.2,0,0,0,0-.09.14.14,0,0,0,0-.09v0h0s0,0,0,0h0l0,0h0a.78.78,0,0,0-.46-.18.8.8,0,0,0-.49.09h0v0a0,0,0,0,0,0,0h0v0a.12.12,0,0,0,0,.09.28.28,0,0,0,0,.09c0,.11.19.2.39.24v.05c0,.31-.08.74-.15,1.18s-.19.7-.33.78a4.57,4.57,0,0,0-1,.14c-.13,0-.26-.11-.36-.32s-.17-.42-.23-.57v0c.13-.06.22-.15.22-.22a.15.15,0,0,0,0-.07s0,0,0-.06h0l0,0h0a.54.54,0,0,0-.35,0,.51.51,0,0,0-.29.2h0v0h0v0a.2.2,0,0,0,0,.07l0,.06a.34.34,0,0,0,.28.05v0c.05.15.12.37.17.59a.46.46,0,0,1-.09.47,4.85,4.85,0,0,0-.91.54c-.17,0-.48-.15-.91-.58l-.64-.68-.06-.06c.16-.18.24-.37.19-.48a.41.41,0,0,0-.05-.09l-.09-.06h-.11a1,1,0,0,0-.77.71h0v.09h0v0a.41.41,0,0,0,0,.09.24.24,0,0,0,.09.06.57.57,0,0,0,.49-.15l.06.06c.26.29.48.6.59.73.41.48.55.81.49,1a4.36,4.36,0,0,0-.52.75c-.14.09-.39.09-.78,0s-.36-.09-.62-.2l-.08,0a.37.37,0,0,0,0-.34.1.1,0,0,0-.06-.05h-.16a.67.67,0,0,0-.24.31.58.58,0,0,0-.06.39h0v0l0,0h0l.06,0a.12.12,0,0,0,.08,0,.39.39,0,0,0,.26-.2l.08,0c.26.12.23.09.59.28s.54.36.57.52a4.46,4.46,0,0,0-.2,1.09.27.27,0,0,1-.16.21l-.24.05h0a.35.35,0,0,0-.13-.26h-.06l-.06,0h0l0,0h0v0h0a.42.42,0,0,0-.07.29.49.49,0,0,0,.08.3h.17a.32.32,0,0,0,.12-.26h0l.24,0a.26.26,0,0,1,.15.23,5.19,5.19,0,0,0,.21,1c-.05.15-.25.33-.64.53l-1.1.52,0,0a.38.38,0,0,0-.27-.22l-.07,0-.07,0v0h0a0,0,0,0,0,0,0h0v0h0a.73.73,0,0,0,.06.39.68.68,0,0,0,.25.31h.16l.06,0a.37.37,0,0,0,0-.34l0,0c.3-.13.7-.29,1.13-.45a1.17,1.17,0,0,1,.83-.11,4.42,4.42,0,0,0,.64.88c0,.12,0,.26-.21.54s-.28.34-.47.55l0,0a.48.48,0,0,0-.42-.12l-.07.05a.59.59,0,0,0,0,.08v0h0v.07h0a.8.8,0,0,0,.25.39.78.78,0,0,0,.42.22h.1a.18.18,0,0,0,.07-.05.14.14,0,0,0,.05-.08c0-.09,0-.25-.15-.4l0,0c.19-.21.22-.22.51-.5s.39-.29.5-.27a4.36,4.36,0,0,0,1,.59.78.78,0,0,1,0,.58s0,.13-.09.34v0a.35.35,0,0,0-.29.05l0,0a.2.2,0,0,0,0,.07h0v0h0v0h0a.47.47,0,0,0,.27.18.51.51,0,0,0,.34,0h.06a.09.09,0,0,0,0-.05.2.2,0,0,0,0-.07c0-.07-.08-.15-.2-.21v0a1.53,1.53,0,0,1,.14-.32.74.74,0,0,1,.34-.46,4.2,4.2,0,0,0,1.12.15c.13.08.26.33.32.78s.12.88.16,1.19v0a.51.51,0,0,0-.39.24.31.31,0,0,0,0,.1.16.16,0,0,0,0,.09v0h0l0,0h0a.89.89,0,0,0,.94-.09h0l0,0h0l0,0h0v0a.14.14,0,0,0,0-.09.2.2,0,0,0,0-.09c-.05-.1-.22-.16-.43-.17v0c0-.31-.06-.74-.08-1.2s.05-.71.17-.82a4.19,4.19,0,0,0,1-.3l.09,0a.52.52,0,0,1,.37.25c.14.2.26.39.34.53v0c-.11.09-.18.19-.17.27s0,0,0,.06l.05.05h.07a.47.47,0,0,0,.34-.09.53.53,0,0,0,.25-.24h0v0h0v0h0s0-.05,0-.07l-.05-.05a.35.35,0,0,0-.29,0v0c-.08-.15-.18-.35-.28-.56a.48.48,0,0,1,0-.45A5.1,5.1,0,0,0,426,167c.15-.06.42,0,.8.27s.73.5,1,.68l0,0c-.12.2-.16.4-.09.5a.18.18,0,0,0,.07.08.18.18,0,0,0,.09,0H428a.84.84,0,0,0,.42-.34.89.89,0,0,0,.2-.5h0v-.05a0,0,0,0,0,0,0h0v0a.27.27,0,0,0-.07-.08.18.18,0,0,0-.1,0c-.11,0-.29.06-.45.23l0,0L427,167c-.35-.29-.5-.52-.5-.68a4.56,4.56,0,0,0,.43-1,.7.7,0,0,1,.58-.1,8.32,8.32,0,0,1,.83.14h.06c0,.16,0,.29.09.33l.07,0h.15a.64.64,0,0,0,.19-.35A.73.73,0,0,0,428.9,165Zm-9.32-.44c-.35,0-.65-.36-.67-.82s.26-.86.61-.87.65.35.67.82S419.93,164.55,419.58,164.56Zm.75,1.91a.36.36,0,0,1-.49-.1.36.36,0,0,1,0-.49.36.36,0,0,1,.49.1A.35.35,0,0,1,420.33,166.47Zm.59-4.59a.55.55,0,0,1-.74.19.54.54,0,0,1,0-.76.48.48,0,1,1,.72.57Zm.46,2.51a.46.46,0,0,1,.63.14.4.4,0,1,1-.63-.14Zm1.1,3a.54.54,0,0,1-.72.25c-.32-.1-.52-.38-.44-.62a.54.54,0,0,1,.72-.25C422.36,166.88,422.56,167.16,422.48,167.4Zm0-4.47a.48.48,0,0,1-.67,0,.49.49,0,0,1,.18-.65.5.5,0,0,1,.68,0A.49.49,0,0,1,422.45,162.93Zm.08-2c-.22,0-.42-.07-.44-.24s.13-.32.35-.35a.37.37,0,0,1,.44.24C422.9,160.76,422.74,160.92,422.53,161Zm.85,4.68a.35.35,0,0,1,.1-.48.31.31,0,1,1-.1.48Zm.63,2a.35.35,0,0,1-.48-.12.36.36,0,0,1,.25-.43.38.38,0,0,1,.49.12A.36.36,0,0,1,424,167.58Zm.35-3.42a.64.64,0,1,1,.07-.76A.54.54,0,0,1,424.36,164.16Zm-.1-2.38A.55.55,0,0,1,424,161a.64.64,0,1,1,.22.74Zm1.57,4a.48.48,0,1,1-.85-.34.55.55,0,0,1,.65-.4A.54.54,0,0,1,425.83,165.76Zm.22-1.92a.48.48,0,1,1,.22-.53A.42.42,0,0,1,426.05,163.84Z" style="fill:#6930C3"></path></g><g id="freepik--virus--inject-23"><path d="M392,275h0l0,0v0l0,0h0l0,0-.12-.06a.28.28,0,0,0-.13,0c-.14,0-.29.19-.38.43l-.1,0c-.37-.09-.88-.22-1.4-.37a1.25,1.25,0,0,1-.83-.59,7.53,7.53,0,0,0,0-2.12.37.37,0,0,1,.17-.22,1.18,1.18,0,0,1,.38-.15h0c.07.21.19.37.31.38h.1a.18.18,0,0,0,.09,0h0l0,0h0v0h0a.85.85,0,0,0,0-.52.9.9,0,0,0-.24-.47h0l0,0h-.19a.18.18,0,0,0-.09,0c-.1.06-.14.25-.12.47h0a1.81,1.81,0,0,1-.42,0,.3.3,0,0,1-.24-.14,7.19,7.19,0,0,0-.39-1.16,8.18,8.18,0,0,0-.52-1c0-.21,0-.45.52-.84a11,11,0,0,1,.93-.76l0,0c.24.25.5.38.67.33a.35.35,0,0,0,.14-.06.38.38,0,0,0,.1-.12l0,0v0a.08.08,0,0,0,0-.05v0s0,0,0,0h0a1.27,1.27,0,0,0-.3-.75,1.31,1.31,0,0,0-.63-.5h-.18a.27.27,0,0,0-.14.07.26.26,0,0,0-.1.11.77.77,0,0,0,.12.73l0,0c-.39.28-.44.29-1,.66s-.75.35-.94.26a7.52,7.52,0,0,0-1.54-1.33,1.33,1.33,0,0,1,.18-.93,4.81,4.81,0,0,1,.24-.54l0,0a.58.58,0,0,0,.5,0s.06-.05.07-.09a.42.42,0,0,0,0-.1v0h0a.06.06,0,0,0,0,0v-.05h0a1,1,0,0,0-.41-.4.94.94,0,0,0-.56-.14h-.05l0,0h0l0,0a.27.27,0,0,0-.07.08.19.19,0,0,0,0,.1c0,.12.09.29.27.43l0,0a3.44,3.44,0,0,1-.34.49,1.32,1.32,0,0,1-.7.64,7.73,7.73,0,0,0-1.87-.61c-.21-.19-.33-.64-.3-1.42s.08-1.51.13-2v-.08c.36,0,.65-.12.73-.29a.3.3,0,0,0,.05-.15.32.32,0,0,0,0-.17v-.05l0-.05,0,0,0,0h0a1.34,1.34,0,0,0-.79-.3,1.46,1.46,0,0,0-.84.14h0l0,0,0,0,0,0v0l0,0a.28.28,0,0,0-.05.16.3.3,0,0,0,0,.16c.05.18.32.34.67.42a.25.25,0,0,1,0,.08c-.05.53-.13,1.27-.25,2s-.32,1.2-.56,1.34a7.86,7.86,0,0,0-1.8.23.78.78,0,0,1-.61-.54c-.17-.37-.31-.73-.4-1v0c.22-.11.37-.26.37-.39a.49.49,0,0,0,0-.12l-.06-.1,0,0h0l0,0h-.05a1,1,0,0,0-.6,0,1,1,0,0,0-.51.34h0v0h0s0,0,0,0h0v0a.25.25,0,0,0,0,.12.21.21,0,0,0,.06.1.53.53,0,0,0,.48.09l0,.05c.09.26.19.63.29,1a.77.77,0,0,1-.16.8,7.57,7.57,0,0,0-1.56.93c-.3,0-.83-.26-1.56-1-.14-.14-.65-.67-1.11-1.17l-.1-.1c.27-.31.41-.63.33-.83a.46.46,0,0,0-.09-.15.44.44,0,0,0-.15-.1l0,0h-.16a1.45,1.45,0,0,0-.83.42,1.48,1.48,0,0,0-.49.79h0a.43.43,0,0,1,0,.05v0a.15.15,0,0,0,0,.07h0a.08.08,0,0,1,0,0,.51.51,0,0,0,.09.16.44.44,0,0,0,.15.1c.19.1.52,0,.85-.25l.1.1c.45.5.83,1,1,1.26.71.83,1,1.39.86,1.67a8.22,8.22,0,0,0-.91,1.3c-.23.15-.66.16-1.33-.08s-.62-.17-1.07-.36l-.14-.06a.62.62,0,0,0-.05-.59.18.18,0,0,0-.1-.07.31.31,0,0,0-.13,0h0l-.05,0h-.06a1.12,1.12,0,0,0-.42.53,1.17,1.17,0,0,0-.1.68h0l0,0v0l0,0h0v0l.11.08a.3.3,0,0,0,.13,0c.14,0,.31-.13.45-.35l.14.06c.45.2.39.16,1,.48s.92.63,1,.9a7.37,7.37,0,0,0-.36,1.87.45.45,0,0,1-.26.37,1.51,1.51,0,0,1-.41.07h0a.52.52,0,0,0-.23-.43l-.1,0-.1,0h0l0,0h0v0h0a.85.85,0,0,0-.13.5.79.79,0,0,0,.15.51h0l0,0v0l0,0h0l.1,0,.1,0a.54.54,0,0,0,.21-.44h0a2.6,2.6,0,0,1,.42.05c.15,0,.24.23.27.4a7.43,7.43,0,0,0,.36,1.72c-.09.27-.44.58-1.11.92s-1.4.67-1.9.89l-.08,0c-.14-.23-.32-.38-.46-.37l-.13,0-.11.08,0,0h0l0,0v0l0,0h0a1.17,1.17,0,0,0,.1.68,1.09,1.09,0,0,0,.43.53h0l0,0h0l0,0h0a.28.28,0,0,0,.13,0,.3.3,0,0,0,.11-.07.65.65,0,0,0,.05-.59l.08,0c.5-.21,1.2-.5,1.94-.78a2.11,2.11,0,0,1,1.43-.19,7.7,7.7,0,0,0,1.09,1.53c.07.19,0,.45-.37.92s-.46.59-.79,1l0,0a.82.82,0,0,0-.72-.19.34.34,0,0,0-.12.09.35.35,0,0,0-.08.13s0,0,0,0h0a.11.11,0,0,0,0,.05v0s0,0,0,.05h0a1.31,1.31,0,0,0,.43.68,1.34,1.34,0,0,0,.72.37h.17a.38.38,0,0,0,.13-.09.35.35,0,0,0,.08-.13c.07-.17,0-.44-.26-.7l0,0c.33-.36.38-.38.88-.87s.67-.49.86-.46a7.55,7.55,0,0,0,1.76,1,1.34,1.34,0,0,1,0,1,4.27,4.27,0,0,1-.14.59v0a.6.6,0,0,0-.5.09.41.41,0,0,0-.05.09.25.25,0,0,0,0,.12v0h0s0,0,0,0h0l0,0h0a.9.9,0,0,0,.48.32.88.88,0,0,0,.57,0h0l0,0h0l.06-.1a.41.41,0,0,0,0-.11c0-.12-.14-.26-.35-.36l0,0c.12-.35.18-.42.23-.56a1.4,1.4,0,0,1,.59-.78,7.8,7.8,0,0,0,1.93.25c.24.15.45.57.56,1.34s.21,1.52.26,2.05a.28.28,0,0,1,0,.09c-.35.07-.62.24-.67.42a.41.41,0,0,0,0,.16.75.75,0,0,0,0,.16l0,0h0s0,0,0,0l0,0,0,0h0a1.63,1.63,0,0,0,1.63-.16h0l0,0,0,0,0,0h0l0,0a1,1,0,0,0,0-.17.53.53,0,0,0-.05-.15.87.87,0,0,0-.74-.29.22.22,0,0,1,0-.08c-.05-.54-.11-1.29-.14-2.06a1.94,1.94,0,0,1,.29-1.43,7.55,7.55,0,0,0,1.64-.5l.14-.07a.84.84,0,0,1,.65.43c.23.33.44.67.58.91l0,0c-.19.15-.31.32-.29.45a.36.36,0,0,0,0,.11.24.24,0,0,0,.08.09h0l0,0h.05a1,1,0,0,0,.59-.15,1,1,0,0,0,.43-.43h0v-.09h0v0a.2.2,0,0,0,0-.11.24.24,0,0,0-.08-.09.53.53,0,0,0-.5,0l0-.05c-.14-.24-.31-.59-.48-1a.85.85,0,0,1,0-.77,7.24,7.24,0,0,0,1.41-1.23c.27-.09.73,0,1.38.47s1.26.86,1.69,1.17l.07.05c-.21.35-.28.7-.16.87a.53.53,0,0,0,.12.14.46.46,0,0,0,.16.07h.2a1.48,1.48,0,0,0,.73-.57,1.51,1.51,0,0,0,.34-.87h0a.07.07,0,0,0,0-.05v0s0,0,0-.06v0s0,0,0,0a.37.37,0,0,0-.12-.13.6.6,0,0,0-.16-.08c-.21-.05-.51.12-.79.41l-.07-.05c-.43-.32-1-.77-1.61-1.26s-.86-.9-.86-1.18a7.79,7.79,0,0,0,.74-1.64,1.2,1.2,0,0,1,1-.18c.54.07,1.06.17,1.43.25l.09,0a.64.64,0,0,0,.16.57l.12.05h.17l.05,0h0l0,0h0a1.13,1.13,0,0,0,.31-.61A1.08,1.08,0,0,0,392,275Zm-16-.76c-.6,0-1.11-.61-1.14-1.42a1.31,1.31,0,0,1,1-1.49c.61,0,1.12.62,1.15,1.42A1.31,1.31,0,0,1,376,274.26Zm1.3,3.29a.61.61,0,0,1-.84-.17.6.6,0,0,1-.07-.85.71.71,0,0,1,.91,1Zm1-7.9a.82.82,0,1,1,0-1.32A.95.95,0,0,1,378.27,269.65Zm.79,4.32a.8.8,0,0,1,1.08.24.79.79,0,0,1,.07,1.1.8.8,0,0,1-1.08-.24A.79.79,0,0,1,379.06,274Zm1.89,5.19a1,1,0,0,1-1.24.42c-.55-.18-.89-.66-.75-1.07a.94.94,0,0,1,1.24-.43C380.75,278.26,381.09,278.74,381,279.16Zm0-7.7a.84.84,0,0,1-1.16,0,1,1,0,1,1,1.16,0Zm.13-3.4a.63.63,0,0,1-.76-.41c0-.28.23-.56.61-.61a.61.61,0,0,1,.75.41C381.68,267.73,381.41,268,381,268.06Zm1.47,8.05a.62.62,0,0,1,.17-.84.54.54,0,1,1,.68.78A.61.61,0,0,1,382.51,276.11Zm1.08,3.36a.63.63,0,0,1-.83-.22.64.64,0,0,1,.44-.74.63.63,0,0,1,.83.22C384.14,279,383.94,279.32,383.59,279.47Zm.6-5.9a1.09,1.09,0,1,1,.12-1.3A.94.94,0,0,1,384.19,273.57Zm-.18-4.09a.84.84,0,1,1,1.34,0A1,1,0,0,1,384,269.48Zm2.71,6.84a.82.82,0,1,1-.34-1.26A.93.93,0,0,1,386.72,276.32Zm.38-3.3c-.32.08-.66-.2-.76-.62a.7.7,0,0,1,.38-.9c.31-.08.66.19.76.62A.71.71,0,0,1,387.1,273Z" style="fill:#6930C3"></path></g><g id="freepik--virus--inject-23"><path d="M202.69,329.26h0l0-.05,0,0,0-.05h0l0,0a.4.4,0,0,0-.16-.08h-.17c-.18,0-.37.25-.49.56l-.13,0c-.48-.11-1.15-.28-1.83-.48a1.61,1.61,0,0,1-1.08-.76,10,10,0,0,0,0-2.79.46.46,0,0,1,.22-.28,2,2,0,0,1,.5-.2h0c.1.28.25.48.4.5H200a.22.22,0,0,0,.12-.05l0,0h0l0,0v0l0,0h0a1.07,1.07,0,0,0,0-.68,1,1,0,0,0-.31-.62h0l0,0h0l0,0h0a.29.29,0,0,0-.13,0,.23.23,0,0,0-.12.06c-.13.08-.19.32-.17.62h0a2.92,2.92,0,0,1-.55,0,.43.43,0,0,1-.31-.19A9.7,9.7,0,0,0,198,323a10.86,10.86,0,0,0-.68-1.26c-.05-.27.06-.59.68-1.11s.72-.62,1.22-1l0,0c.31.32.65.5.87.44a.48.48,0,0,0,.19-.09.37.37,0,0,0,.13-.15l0,0v0a.19.19,0,0,0,0-.07.08.08,0,0,1,0,0v-.05h0a1.72,1.72,0,0,0-.39-1,1.7,1.7,0,0,0-.83-.65H199a.55.55,0,0,0-.19.09.47.47,0,0,0-.13.15,1.05,1.05,0,0,0,.17.95l-.06.05c-.5.37-.57.38-1.31.87s-1,.46-1.23.34a10.16,10.16,0,0,0-2-1.75,1.73,1.73,0,0,1,.23-1.21,4.86,4.86,0,0,1,.32-.71l0,0a.73.73,0,0,0,.65,0,.36.36,0,0,0,.1-.11.57.57,0,0,0,0-.14v0h0a.07.07,0,0,0,0-.05v0l0,0h0a1.27,1.27,0,0,0-.53-.53,1.24,1.24,0,0,0-.73-.18h-.07l-.05,0h0l0,0a.35.35,0,0,0-.1.11.25.25,0,0,0,0,.14c0,.15.11.37.35.55l0,0a4.27,4.27,0,0,1-.43.64,1.76,1.76,0,0,1-.93.84,10,10,0,0,0-2.44-.79,2.53,2.53,0,0,1-.39-1.86c0-1,.11-2,.17-2.67a.41.41,0,0,1,0-.11c.47,0,.86-.15,1-.37a.48.48,0,0,0,.07-.2.78.78,0,0,0,0-.22.05.05,0,0,0,0,0v0a.16.16,0,0,0,0-.07l0,0,0,0h0a1.75,1.75,0,0,0-1-.39,1.77,1.77,0,0,0-1.1.19h0l-.05,0,0,0,0,.06h0l0,0a.47.47,0,0,0-.06.21.5.5,0,0,0,0,.21c.07.24.42.45.88.55a.34.34,0,0,1,0,.1c-.07.7-.18,1.67-.33,2.66s-.42,1.57-.74,1.76a10,10,0,0,0-2.35.3,1.06,1.06,0,0,1-.8-.71c-.21-.48-.39-.95-.51-1.3,0,0,0,0,0,0,.29-.14.48-.34.49-.51a.39.39,0,0,0,0-.15.41.41,0,0,0-.08-.13l0,0h0l0,0h0l0,0h0a1.53,1.53,0,0,0-1.45.49h0l0,0a0,0,0,0,0,0,0,.08.08,0,0,0,0,.05h0a.06.06,0,0,0,0,0,.39.39,0,0,0,0,.15.33.33,0,0,0,.07.13.75.75,0,0,0,.64.13l0,.06c.11.34.25.83.37,1.34a1,1,0,0,1-.2,1.05,10.11,10.11,0,0,0-2,1.22c-.4,0-1.08-.34-2.05-1.31-.18-.18-.84-.88-1.44-1.53l-.13-.13c.35-.4.53-.83.42-1.08a.49.49,0,0,0-.11-.2.52.52,0,0,0-.2-.14l0,0h-.21a2,2,0,0,0-1.08.56,1.91,1.91,0,0,0-.64,1h0v.21a.43.43,0,0,0,0,.05.72.72,0,0,0,.12.21.59.59,0,0,0,.19.13,1.2,1.2,0,0,0,1.11-.33l.13.14c.6.65,1.09,1.35,1.33,1.64.92,1.08,1.24,1.82,1.12,2.19a9.68,9.68,0,0,0-1.18,1.69c-.31.21-.88.22-1.75-.1s-.81-.22-1.4-.47l-.18-.07a.82.82,0,0,0-.06-.78.5.5,0,0,0-.14-.1.47.47,0,0,0-.17,0h-.14l0,0h0a1.47,1.47,0,0,0-.55.7,1.41,1.41,0,0,0-.13.88h0l0,.05v0l0,.05h0s0,0,0,0a.4.4,0,0,0,.15.1.32.32,0,0,0,.16,0c.18,0,.41-.17.59-.46l.18.08c.59.26.51.2,1.34.62s1.2.82,1.28,1.17a9.82,9.82,0,0,0-.47,2.46.54.54,0,0,1-.35.47,1.85,1.85,0,0,1-.53.11h0c0-.29-.16-.52-.3-.57a.28.28,0,0,0-.13,0,.31.31,0,0,0-.13,0l0,0h0l0,0,0,0,0,0h0a1.08,1.08,0,0,0-.18.66,1.13,1.13,0,0,0,.19.66h0l0,0v0l0,0h0l0,0a.27.27,0,0,0,.13,0l.13,0a.71.71,0,0,0,.28-.58h0a2.57,2.57,0,0,1,.55.07c.2.05.31.29.35.52a10.49,10.49,0,0,0,.47,2.25c-.12.34-.57.76-1.45,1.2s-1.82.88-2.48,1.17l-.1,0c-.19-.3-.42-.49-.61-.48l-.17,0-.14.11s0,0,0,0h0l0,.05v0l0,.05h0a1.57,1.57,0,0,0,.13.88,1.4,1.4,0,0,0,.56.69h0l0,0H175a.26.26,0,0,0,.17,0,.45.45,0,0,0,.14-.1.86.86,0,0,0,.06-.77l.1-.05c.66-.28,1.58-.66,2.54-1a2.72,2.72,0,0,1,1.87-.24,9.64,9.64,0,0,0,1.44,2c.09.26,0,.59-.49,1.21s-.61.77-1,1.24l-.06.06a1,1,0,0,0-.94-.26.36.36,0,0,0-.16.12.42.42,0,0,0-.1.17.09.09,0,0,0,0,.05v0a.2.2,0,0,1,0,.07s0,0,0,0v.06h0a2,2,0,0,0,1.51,1.38h.18l0,0a.33.33,0,0,0,.17-.12.62.62,0,0,0,.11-.17,1.08,1.08,0,0,0-.35-.91l.06-.06c.43-.46.49-.49,1.15-1.13s.87-.65,1.13-.6a10.11,10.11,0,0,0,2.29,1.34,1.72,1.72,0,0,1,0,1.28,7.9,7.9,0,0,1-.19.78l0,0a.72.72,0,0,0-.64.11.33.33,0,0,0-.07.13.32.32,0,0,0,0,.14,0,0,0,0,0,0,0v0a.17.17,0,0,0,0,.05v0l0,0h0a1.21,1.21,0,0,0,.62.42,1.16,1.16,0,0,0,.75,0h.07l0,0h0l0,0a.36.36,0,0,0,.08-.12.34.34,0,0,0,0-.14c0-.16-.18-.34-.45-.48l0,0a5.57,5.57,0,0,1,.31-.73,1.76,1.76,0,0,1,.77-1,10.13,10.13,0,0,0,2.52.33c.31.19.58.75.74,1.76s.27,2,.34,2.67a.37.37,0,0,0,0,.11c-.46.11-.82.32-.88.56a.47.47,0,0,0,0,.21.47.47,0,0,0,.06.2l0,0v0l.05.05,0,0,0,0h0a1.8,1.8,0,0,0,1.1.18,1.82,1.82,0,0,0,1-.39h0l0-.05,0,0,0-.06v0l0-.05a.71.71,0,0,0,0-.21.59.59,0,0,0-.07-.2c-.11-.22-.49-.36-1-.37a.41.41,0,0,0,0-.11c-.06-.71-.14-1.68-.18-2.7a2.49,2.49,0,0,1,.38-1.86,9.87,9.87,0,0,0,2.15-.66l.18-.09a1.1,1.1,0,0,1,.85.56c.31.44.57.87.76,1.19l0,.05c-.26.2-.41.43-.38.59a.42.42,0,0,0,0,.15.38.38,0,0,0,.11.11l0,0h0l.05,0h.07a1.34,1.34,0,0,0,.77-.2,1.25,1.25,0,0,0,.56-.56h0a.06.06,0,0,0,0,0v0a.09.09,0,0,0,0-.05V338a.44.44,0,0,0-.05-.15.35.35,0,0,0-.1-.11.7.7,0,0,0-.64,0l0-.06c-.17-.32-.41-.78-.62-1.26a1.11,1.11,0,0,1-.06-1,9.81,9.81,0,0,0,1.85-1.6c.35-.12.95.05,1.81.61s1.64,1.12,2.2,1.53l.09.07a1.23,1.23,0,0,0-.21,1.14.8.8,0,0,0,.15.17.72.72,0,0,0,.22.1h.27a2,2,0,0,0,.95-.76,2,2,0,0,0,.44-1.13h0a.15.15,0,0,0,0-.07v0l0-.08v0s0,0,0,0a.54.54,0,0,0-.37-.27c-.26-.08-.66.14-1,.53l-.09-.06c-.56-.42-1.33-1-2.11-1.66s-1.13-1.17-1.13-1.54a9.86,9.86,0,0,0,1-2.14,1.55,1.55,0,0,1,1.3-.24c.71.1,1.38.22,1.86.33l.13,0c0,.36,0,.65.21.75a.41.41,0,0,0,.15.07.37.37,0,0,0,.18,0h0l.06,0h0l0,0h0a1.66,1.66,0,0,0,.37-1.68Zm-21-1c-.79,0-1.46-.8-1.49-1.85s.57-1.93,1.36-2,1.46.8,1.5,1.85A1.72,1.72,0,0,1,181.72,328.26Zm1.69,4.31a.81.81,0,0,1-1.09-.23.7.7,0,1,1,1-.89A.81.81,0,0,1,183.41,332.57Zm1.34-10.34a1.08,1.08,0,1,1,0-1.72A1.25,1.25,0,0,1,184.75,322.23Zm1,5.65a1.2,1.2,0,0,1,1.49,1.75,1,1,0,0,1-1.41-.31A1,1,0,0,1,185.78,327.88Zm2.47,6.78a1.25,1.25,0,0,1-1.63.56c-.72-.24-1.16-.87-1-1.41a1.23,1.23,0,0,1,1.62-.55C188,333.49,188.43,334.12,188.25,334.66Zm-.06-10.06a.95.95,0,1,1,.42-1.46A1.09,1.09,0,0,1,188.19,324.6Zm.17-4.45a.82.82,0,0,1-1-.54c-.05-.37.3-.72.79-.79a.82.82,0,0,1,1,.53C189.2,319.72,188.85,320.08,188.36,320.15Zm1.92,10.53a.8.8,0,0,1,.23-1.09.7.7,0,1,1-.23,1.09Zm1.42,4.39a.7.7,0,1,1,.57-1A.81.81,0,0,1,191.7,335.07Zm.78-7.71a1.42,1.42,0,1,1,.16-1.71A1.24,1.24,0,0,1,192.48,327.36Zm-.23-5.35a1.09,1.09,0,1,1,1.25-1.69,1.09,1.09,0,1,1-1.25,1.69Zm3.54,8.95a1.07,1.07,0,1,1-.44-1.66A1.23,1.23,0,0,1,195.79,331Zm.49-4.32c-.41.1-.86-.26-1-.81a.91.91,0,0,1,.5-1.18c.41-.11.86.25,1,.8A.93.93,0,0,1,196.28,326.64Z" style="fill:#6930C3"></path></g><g id="freepik--virus--inject-23"><path d="M260.26,208.4h0l0-.05,0,0a.12.12,0,0,0,0-.05v0l0,0a.61.61,0,0,0-.2-.09.5.5,0,0,0-.21,0c-.22,0-.46.31-.62.7l-.16,0c-.6-.13-1.43-.35-2.29-.61a2,2,0,0,1-1.36-.95,12.38,12.38,0,0,0,0-3.49.64.64,0,0,1,.28-.35,2.39,2.39,0,0,1,.63-.25h.07c.11.35.3.6.49.63h.17a.35.35,0,0,0,.15-.07l0,0h0l0-.05,0,0a.08.08,0,0,1,0,0h0a1.4,1.4,0,0,0,.06-.86,1.46,1.46,0,0,0-.39-.77h0l0,0,0,0-.05,0h-.22a.39.39,0,0,0-.15.06.89.89,0,0,0-.21.78h-.06a2.38,2.38,0,0,1-.69,0,.5.5,0,0,1-.38-.23,13.26,13.26,0,0,0-.64-1.9,14.18,14.18,0,0,0-.85-1.59c-.07-.33.07-.73.84-1.38s.91-.78,1.53-1.25l.07-.05c.39.4.81.62,1.09.54a.67.67,0,0,0,.23-.1.79.79,0,0,0,.17-.2s0,0,0-.05v0a.32.32,0,0,0,0-.09.06.06,0,0,1,0,0v-.08h0A2.12,2.12,0,0,0,257,195a2.19,2.19,0,0,0-1-.82h-.29a.86.86,0,0,0-.24.11.58.58,0,0,0-.16.19,1.32,1.32,0,0,0,.2,1.2l-.07,0c-.63.46-.71.48-1.64,1.09s-1.24.58-1.54.43a12.53,12.53,0,0,0-2.53-2.19,2.17,2.17,0,0,1,.29-1.52,6.18,6.18,0,0,1,.41-.89l0-.05a.93.93,0,0,0,.82,0,.41.41,0,0,0,.12-.14.34.34,0,0,0,0-.17.08.08,0,0,0,0,0v0s0,0,0-.07a0,0,0,0,1,0,0s0,0,0,0h0a1.79,1.79,0,0,0-1.58-.89h-.09l-.05,0h0l0,0a.58.58,0,0,0-.13.14.48.48,0,0,0,0,.17c0,.19.15.46.44.69l0,.05a8.09,8.09,0,0,1-.54.81,2.18,2.18,0,0,1-1.16,1,13.18,13.18,0,0,0-3.06-1c-.34-.31-.54-1.06-.49-2.32s.13-2.48.21-3.35c0-.05,0-.09,0-.14.6,0,1.08-.19,1.21-.47a.67.67,0,0,0,.08-.25.63.63,0,0,0,0-.27s0,0,0-.05v0a.56.56,0,0,1,0-.08l0,0,0-.06h0a2.23,2.23,0,0,0-1.3-.49,2.28,2.28,0,0,0-1.37.24h0s0,0-.06,0,0,0,0,0l-.07.07v0l0,.05a.54.54,0,0,0-.09.26.75.75,0,0,0,0,.26c.08.3.52.56,1.1.69,0,0,0,.08,0,.13-.08.87-.22,2.08-.41,3.33s-.53,2-.93,2.2a11.86,11.86,0,0,0-2.94.38,1.31,1.31,0,0,1-1-.89c-.27-.6-.5-1.2-.65-1.63,0,0,0,0,0-.06.36-.18.6-.43.61-.64a.62.62,0,0,0,0-.19.59.59,0,0,0-.1-.17l0,0h0l0,0h0l-.05,0h0a1.58,1.58,0,0,0-1,.06,1.55,1.55,0,0,0-.82.55h0l0,.05,0,0s0,0,0,.06v0s0,0,0,0a.68.68,0,0,0,0,.2.44.44,0,0,0,.1.16.91.91,0,0,0,.79.16l0,.07c.14.43.32,1,.47,1.68a1.28,1.28,0,0,1-.26,1.32,13.34,13.34,0,0,0-2.56,1.53c-.49.05-1.35-.43-2.56-1.64-.23-.23-1-1.1-1.8-1.91l-.16-.18c.43-.5.65-1,.52-1.35a.64.64,0,0,0-.39-.42l-.06,0h0l-.1,0h-.13a2.5,2.5,0,0,0-1.36.7,2.41,2.41,0,0,0-.8,1.29h0v.09a.43.43,0,0,0,0,.05s0,.07,0,.1a0,0,0,0,1,0,0s0,0,0,.06a.76.76,0,0,0,.15.26.91.91,0,0,0,.23.17,1.58,1.58,0,0,0,1.4-.42l.15.17c.76.83,1.37,1.7,1.67,2,1.15,1.37,1.55,2.29,1.4,2.75a12.47,12.47,0,0,0-1.48,2.13c-.38.25-1.09.26-2.18-.13s-1-.28-1.76-.59l-.22-.09a1.1,1.1,0,0,0-.08-1,.66.66,0,0,0-.17-.12.57.57,0,0,0-.22,0H227l0,0-.05,0h0a1.78,1.78,0,0,0-.7.87,1.75,1.75,0,0,0-.15,1.1h0s0,0,0,.06,0,0,0,0l0,.06v0l0,0a.57.57,0,0,0,.18.12.49.49,0,0,0,.2.05c.23,0,.52-.22.75-.58l.22.1c.73.32.64.26,1.67.78s1.51,1,1.61,1.47a12.72,12.72,0,0,0-.59,3.08.7.7,0,0,1-.43.59,2.66,2.66,0,0,1-.67.13H229c0-.37-.19-.65-.37-.71a.29.29,0,0,0-.16,0,.42.42,0,0,0-.16,0l0,0h0l-.05,0,0,0,0,0h0a1.44,1.44,0,0,0-.22.83,1.39,1.39,0,0,0,.24.83h0l0,0,0,0,0,0h0l0,0a.41.41,0,0,0,.16,0,.38.38,0,0,0,.16,0A.85.85,0,0,0,229,206h.07a3.18,3.18,0,0,1,.68.09.77.77,0,0,1,.45.65,12.11,12.11,0,0,0,.59,2.82c-.15.44-.72,1-1.82,1.51s-2.28,1.09-3.1,1.46l-.13.05c-.24-.37-.53-.61-.77-.6a.52.52,0,0,0-.21,0,.76.76,0,0,0-.17.13l0,0v0a.21.21,0,0,0,0,.06l0,0s0,0,0,.06h0a1.7,1.7,0,0,0,.16,1.1,1.78,1.78,0,0,0,.7.87h0l.05,0h0l.07,0h.07a.39.39,0,0,0,.21,0,.57.57,0,0,0,.18-.12,1.07,1.07,0,0,0,.08-1l.13-.06c.82-.35,2-.82,3.18-1.28a3.43,3.43,0,0,1,2.34-.3,12.89,12.89,0,0,0,1.79,2.5c.12.31,0,.73-.6,1.51s-.77,1-1.3,1.55l-.07.08a1.32,1.32,0,0,0-1.17-.33.51.51,0,0,0-.21.15.61.61,0,0,0-.13.22.43.43,0,0,1,0,0v.16a.15.15,0,0,0,0,.07h0a2.13,2.13,0,0,0,.7,1.12,2.21,2.21,0,0,0,1.18.6H232l.09,0h0l.05,0a.86.86,0,0,0,.22-.15.53.53,0,0,0,.12-.22c.11-.27-.07-.71-.43-1.14l.07-.07c.54-.59.62-.62,1.45-1.42s1.09-.81,1.41-.75a12.51,12.51,0,0,0,2.87,1.67,2.17,2.17,0,0,1,0,1.61,7.93,7.93,0,0,1-.23,1l0,.06a.86.86,0,0,0-.81.14.38.38,0,0,0-.09.15.37.37,0,0,0,0,.18v.06a.14.14,0,0,0,0,.06s0,0,0,0l0,0h0a1.6,1.6,0,0,0,.78.53,1.55,1.55,0,0,0,.94.05h0l.05,0,0,0,0,0h0l0,0a.39.39,0,0,0,.1-.16.55.55,0,0,0,0-.18c0-.2-.23-.42-.56-.59l0-.06a5.58,5.58,0,0,1,.39-.91,2.23,2.23,0,0,1,1-1.29,12.38,12.38,0,0,0,3.15.41c.39.24.74.94.93,2.2s.34,2.48.43,3.36c0,.05,0,.09,0,.14-.58.12-1,.39-1.1.69a.57.57,0,0,0,0,.26.72.72,0,0,0,.08.26l0,.05v0l.07.07,0,0,.06,0h0a2.29,2.29,0,0,0,1.37.23,2.24,2.24,0,0,0,1.3-.5h0s0,0,0-.05l0,0a.35.35,0,0,0,.05-.08v0a.14.14,0,0,0,0-.06.59.59,0,0,0,0-.27.67.67,0,0,0-.08-.25c-.14-.28-.62-.45-1.22-.47a.62.62,0,0,0,0-.13c-.08-.88-.17-2.11-.23-3.38a3.21,3.21,0,0,1,.48-2.33,12.65,12.65,0,0,0,2.69-.83l.23-.11a1.36,1.36,0,0,1,1.06.71c.38.54.72,1.09.95,1.48a.16.16,0,0,1,0,.07c-.32.24-.51.53-.48.74a.64.64,0,0,0,.06.18.35.35,0,0,0,.13.14l0,0h0l.06,0H250a1.88,1.88,0,0,0,1.67-.94h0s0,0,0,0,0,0,0,0,0,0,0-.07v0a.08.08,0,0,0,0,0,.41.41,0,0,0-.05-.18.64.64,0,0,0-.13-.15.93.93,0,0,0-.81,0l0-.07c-.22-.4-.51-1-.78-1.58a1.36,1.36,0,0,1-.07-1.26,12.4,12.4,0,0,0,2.31-2c.44-.15,1.19.06,2.27.77s2,1.4,2.76,1.92l.11.08c-.33.57-.45,1.14-.26,1.42a.67.67,0,0,0,.19.22.72.72,0,0,0,.27.12h.25l.08,0h0a2.48,2.48,0,0,0,1.2-.94,2.53,2.53,0,0,0,.55-1.42h0s0,0,0-.08a.09.09,0,0,0,0-.05.29.29,0,0,0,0-.1v0l0-.05a.6.6,0,0,0-.19-.23.8.8,0,0,0-.27-.12c-.33-.09-.83.18-1.29.67l-.1-.08c-.71-.52-1.67-1.27-2.65-2.07s-1.41-1.47-1.41-1.93a12.29,12.29,0,0,0,1.22-2.69,2,2,0,0,1,1.64-.3c.88.13,1.73.28,2.33.41l.16,0c0,.44.06.81.26.93a.48.48,0,0,0,.19.09.41.41,0,0,0,.22,0h.07l.07,0,0,0,.05,0h0a1.78,1.78,0,0,0,.52-1A1.76,1.76,0,0,0,260.26,208.4ZM234,207.15c-1,0-1.83-1-1.88-2.32s.72-2.41,1.71-2.44,1.83,1,1.88,2.32S235,207.12,234,207.15Zm2.11,5.39a1.16,1.16,0,1,1-.11-1.4A1,1,0,0,1,236.11,212.54Zm1.67-12.95a1.35,1.35,0,1,1-2-1.6,1.35,1.35,0,1,1,2,1.6Zm1.29,7.08a1.5,1.5,0,0,1,1.88,2.2,1.3,1.3,0,0,1-1.76-.39A1.32,1.32,0,0,1,239.07,206.67Zm3.1,8.5a1.79,1.79,0,1,1-1.23-1.76A1.55,1.55,0,0,1,242.17,215.17Zm-.07-12.6a1.19,1.19,0,1,1,.52-1.83A1.37,1.37,0,0,1,242.1,202.57Zm.21-5.58a1,1,0,0,1-1.24-.67c-.06-.46.38-.91,1-1a1,1,0,0,1,1.23.67C243.36,196.46,242.92,196.9,242.31,197Zm2.4,13.19a1,1,0,0,1,.29-1.37.88.88,0,1,1-.29,1.37Zm1.79,5.5a1,1,0,0,1-1.36-.36,1,1,0,0,1,.71-1.2.88.88,0,1,1,.65,1.56Zm1-9.65a1.79,1.79,0,1,1,.2-2.15A1.56,1.56,0,0,1,247.47,206Zm-.29-6.71a1.37,1.37,0,1,1,2.19,0A1.58,1.58,0,0,1,247.18,199.32Zm4.44,11.21a1.34,1.34,0,1,1-2.4-1,1.35,1.35,0,1,1,2.4,1Zm.61-5.41c-.51.13-1.07-.33-1.24-1a1.15,1.15,0,0,1,.62-1.48c.52-.13,1.08.33,1.25,1A1.16,1.16,0,0,1,252.23,205.12Z" style="fill:#6930C3"></path></g><g id="freepik--virus--inject-23"><path d="M448.25,366.44h0l0-.05s0,0,0,0,0,0-.05-.05l0,0,0,0a.72.72,0,0,0-.2-.09.5.5,0,0,0-.21,0c-.23,0-.46.31-.62.7l-.16,0c-.61-.13-1.44-.35-2.29-.61a2,2,0,0,1-1.36-.95,12.38,12.38,0,0,0,0-3.49.6.6,0,0,1,.28-.35,2.39,2.39,0,0,1,.63-.25h.06c.12.35.31.6.5.63h.16a.46.46,0,0,0,.16-.07l0,0h0l0-.05v0l0,0h0a1.41,1.41,0,0,0,.05-.86,1.33,1.33,0,0,0-.39-.77h0l0,0,0,0-.05,0h-.22a.34.34,0,0,0-.15.06.89.89,0,0,0-.21.78H444a2.34,2.34,0,0,1-.68,0,.52.52,0,0,1-.39-.23,12.49,12.49,0,0,0-.64-1.9,11.53,11.53,0,0,0-.85-1.59c-.07-.33.07-.73.85-1.38s.9-.78,1.52-1.25l.08,0a1.31,1.31,0,0,0,1.09.54.67.67,0,0,0,.23-.1.79.79,0,0,0,.17-.2l0,0v0l0-.09v0a.22.22,0,0,0,0-.08h0a2.51,2.51,0,0,0-1.53-2.05h-.28a.66.66,0,0,0-.24.11.61.61,0,0,0-.17.19,1.36,1.36,0,0,0,.21,1.2l-.07.05c-.63.46-.71.48-1.65,1.09s-1.24.58-1.54.43a12.75,12.75,0,0,0-2.52-2.19,2.17,2.17,0,0,1,.29-1.52,5.61,5.61,0,0,1,.4-.89l0-.05a.93.93,0,0,0,.82,0,.41.41,0,0,0,.12-.14.34.34,0,0,0,0-.17v-.06a.2.2,0,0,0,0-.07,0,0,0,0,0,0,0s0,0,0,0h0a1.57,1.57,0,0,0-.67-.66,1.52,1.52,0,0,0-.92-.23h-.08l-.06,0h0l0,0a.55.55,0,0,0-.12.14.34.34,0,0,0-.05.17c0,.19.14.46.44.69l0,.05a6.58,6.58,0,0,1-.55.81,2.12,2.12,0,0,1-1.16,1,13,13,0,0,0-3.05-1,3.12,3.12,0,0,1-.5-2.32c.05-1.26.14-2.48.22-3.35a.53.53,0,0,1,0-.13A1.42,1.42,0,0,0,434,345a.67.67,0,0,0,.08-.25.63.63,0,0,0,0-.27s0,0,0-.05v0l0-.08,0,0-.05-.06h0a2.23,2.23,0,0,0-1.3-.49,2.32,2.32,0,0,0-1.38.24h0l-.06,0,0,0-.06.07,0,0,0,.05a.66.66,0,0,0-.08.26.57.57,0,0,0,0,.26c.08.3.52.56,1.1.69a.62.62,0,0,1,0,.13c-.09.87-.22,2.08-.41,3.33s-.53,2-.93,2.2a11.94,11.94,0,0,0-2.95.38,1.3,1.3,0,0,1-1-.89c-.27-.6-.5-1.2-.65-1.63a.14.14,0,0,1,0-.06c.36-.18.6-.43.61-.64a.52.52,0,0,0-.13-.36l0,0h0l-.06,0h0l-.05,0h0a1.58,1.58,0,0,0-1,.06,1.63,1.63,0,0,0-.83.55h0l0,.05v0a.14.14,0,0,0,0,.06v.07a.43.43,0,0,0,0,.19.34.34,0,0,0,.1.16.91.91,0,0,0,.79.16.19.19,0,0,1,0,.07c.15.43.32,1,.47,1.68a1.28,1.28,0,0,1-.26,1.32,13.26,13.26,0,0,0-2.55,1.53c-.49.05-1.35-.43-2.56-1.64-.23-.23-1-1.1-1.81-1.91l-.16-.18c.44-.5.66-1,.53-1.35a.73.73,0,0,0-.15-.25.66.66,0,0,0-.24-.17l-.06,0h0l-.1,0h-.14a2.9,2.9,0,0,0-2.16,2h0s0,.05,0,.08v.05a.34.34,0,0,0,0,.1v0s0,0,0,.06a.76.76,0,0,0,.15.26.81.81,0,0,0,.24.17,1.56,1.56,0,0,0,1.39-.42l.16.17c.75.83,1.36,1.7,1.66,2.05,1.16,1.37,1.55,2.29,1.41,2.75a11.93,11.93,0,0,0-1.48,2.13c-.38.25-1.09.26-2.19-.13s-1-.28-1.75-.59l-.22-.09a1.07,1.07,0,0,0-.08-1,.46.46,0,0,0-.18-.13.52.52,0,0,0-.21,0H415l0,0-.05,0h0a2.14,2.14,0,0,0-.85,2h0s0,0,0,.06a.06.06,0,0,1,0,0l0,.06,0,0s0,0,0,0a.43.43,0,0,0,.17.12.54.54,0,0,0,.21.05c.23,0,.51-.22.74-.58l.23.1c.73.32.64.26,1.67.78s1.51,1,1.6,1.47a12.33,12.33,0,0,0-.58,3.08.71.71,0,0,1-.44.59,2.51,2.51,0,0,1-.67.13H417c0-.37-.19-.65-.37-.71a.32.32,0,0,0-.16,0,.47.47,0,0,0-.17,0l0,0h0l-.05,0,0,0,0,0h0a1.37,1.37,0,0,0-.22.83,1.39,1.39,0,0,0,.24.83h0l0,0,0,0,.05,0h0l0,0a.44.44,0,0,0,.32,0c.18-.07.31-.36.35-.73h.07a2.85,2.85,0,0,1,.68.1c.26.06.4.36.44.64a12.65,12.65,0,0,0,.59,2.82c-.15.44-.72,1-1.81,1.51s-2.29,1.09-3.11,1.46l-.13,0c-.23-.37-.53-.61-.76-.6a.52.52,0,0,0-.21,0,.59.59,0,0,0-.17.13l0,0v0a.21.21,0,0,1,0,.06s0,0,0,0,0,0,0,.06h0a1.84,1.84,0,0,0,.16,1.1,1.89,1.89,0,0,0,.7.87h0l.05,0h0l.08,0h.07a.39.39,0,0,0,.21,0,.43.43,0,0,0,.17-.12,1,1,0,0,0,.08-1l.13-.06c.83-.35,2-.82,3.19-1.28a3.43,3.43,0,0,1,2.34-.3,12.48,12.48,0,0,0,1.79,2.5c.11.31,0,.73-.6,1.51s-.77,1-1.3,1.55l-.07.08c-.46-.32-.92-.46-1.17-.33a.51.51,0,0,0-.21.15.61.61,0,0,0-.13.22.13.13,0,0,0,0,.06v0a.28.28,0,0,0,0,.09v0a.22.22,0,0,1,0,.08h0a2.5,2.5,0,0,0,1.89,1.72H420l.09,0h0l.05,0a.8.8,0,0,0,.21-.15.71.71,0,0,0,.13-.22c.11-.27-.07-.71-.43-1.14l.07-.07c.54-.59.62-.62,1.44-1.42s1.1-.81,1.42-.75a12.51,12.51,0,0,0,2.87,1.67,2.22,2.22,0,0,1,0,1.61,7,7,0,0,1-.24,1l0,.06a.84.84,0,0,0-.8.14.4.4,0,0,0-.1.15.37.37,0,0,0,0,.18v.06a.14.14,0,0,1,0,.06l0,0,0,0h0a1.51,1.51,0,0,0,.78.53,1.55,1.55,0,0,0,.94,0h0l.05,0,0,0,0,0h0l0,0a.54.54,0,0,0,.1-.16.55.55,0,0,0,0-.18c0-.2-.23-.42-.57-.59l0-.06a8.43,8.43,0,0,1,.39-.91,2.2,2.2,0,0,1,1-1.29,12.32,12.32,0,0,0,3.15.41c.39.24.73.94.93,2.2s.33,2.48.42,3.36c0,.05,0,.09,0,.14-.58.12-1,.39-1.1.69a.57.57,0,0,0,0,.26.72.72,0,0,0,.08.26l0,.05,0,0,.06.07,0,0,.06,0h0a2.66,2.66,0,0,0,2.68-.27h0l0-.05,0,0a.35.35,0,0,0,.05-.08v0a.14.14,0,0,0,0-.06.59.59,0,0,0,0-.27.53.53,0,0,0-.08-.25c-.13-.28-.61-.45-1.21-.47,0,0,0-.08,0-.13-.08-.88-.18-2.11-.23-3.38s.14-2,.48-2.33a12.83,12.83,0,0,0,2.69-.83l.23-.11a1.39,1.39,0,0,1,1.06.71c.38.54.72,1.09.95,1.48l0,.07c-.32.24-.51.53-.48.74a.32.32,0,0,0,.06.18.35.35,0,0,0,.13.14l0,0h0l.06,0H438a1.88,1.88,0,0,0,1.67-.94h0a.43.43,0,0,0,0-.05,0,0,0,0,0,0,0,.15.15,0,0,0,0-.07v-.06a.32.32,0,0,0-.06-.18.44.44,0,0,0-.12-.15.93.93,0,0,0-.81,0,.43.43,0,0,1,0-.07c-.22-.4-.52-1-.79-1.58a1.42,1.42,0,0,1-.07-1.26,12.47,12.47,0,0,0,2.32-2c.43-.15,1.19.06,2.26.77s2.06,1.4,2.77,1.92l.11.08a1.56,1.56,0,0,0-.27,1.42.6.6,0,0,0,.2.22.66.66,0,0,0,.27.12h.25l.08,0h0a2.47,2.47,0,0,0,1.19-.94,2.39,2.39,0,0,0,.55-1.42h0v-.08a.09.09,0,0,1,0-.05l0-.1v0l0-.05a.63.63,0,0,0-.2-.23.68.68,0,0,0-.26-.12c-.33-.09-.84.18-1.29.67l-.11-.08c-.7-.52-1.67-1.27-2.64-2.07s-1.41-1.47-1.41-1.93a12.77,12.77,0,0,0,1.22-2.69,2,2,0,0,1,1.64-.3c.88.13,1.72.28,2.33.41l.15,0a1,1,0,0,0,.27.93.42.42,0,0,0,.19.09.41.41,0,0,0,.22,0h.06a.15.15,0,0,0,.07,0,.05.05,0,0,0,0,0l0,0h0a1.78,1.78,0,0,0,.51-1A1.85,1.85,0,0,0,448.25,366.44ZM422,365.19c-1,0-1.82-1-1.87-2.32a2.15,2.15,0,0,1,1.71-2.44c1,0,1.83,1,1.87,2.32A2.15,2.15,0,0,1,422,365.19Zm2.12,5.39a1.17,1.17,0,0,1-1.49-1.67,1.16,1.16,0,0,1,1.49,1.67Zm1.67-12.95a1.35,1.35,0,1,1-2-1.6,1.35,1.35,0,1,1,2,1.6Zm1.29,7.08a1.3,1.3,0,0,1,1.76.39,1.13,1.13,0,1,1-1.76-.39Zm3.1,8.5a1.79,1.79,0,1,1-1.24-1.76A1.56,1.56,0,0,1,430.16,373.21Zm-.08-12.6a1.36,1.36,0,0,1-1.9,0,1.37,1.37,0,0,1,.52-1.83,1.39,1.39,0,0,1,1.91,0A1.38,1.38,0,0,1,430.08,360.61Zm.21-5.58a1,1,0,0,1-1.23-.67c-.07-.46.38-.91,1-1a1,1,0,0,1,1.23.67C431.35,354.5,430.91,354.94,430.29,355Zm2.41,13.19a1.17,1.17,0,0,1,1.69-1.47,1,1,0,0,1-.29,1.37A1,1,0,0,1,432.7,368.22Zm1.78,5.5a.88.88,0,1,1-.64-1.56,1,1,0,0,1,1.36.35A1,1,0,0,1,434.48,373.72Zm1-9.65a1.79,1.79,0,1,1,.19-2.15A1.57,1.57,0,0,1,435.46,364.07Zm-.29-6.71a1.37,1.37,0,1,1,1.57-2.11,1.37,1.37,0,1,1-1.57,2.11Zm4.44,11.21a1.34,1.34,0,1,1-2.4-1,1.35,1.35,0,1,1,2.4,1Zm.61-5.41c-.52.13-1.08-.33-1.25-1a1.16,1.16,0,0,1,.63-1.48c.52-.13,1.08.33,1.25,1A1.16,1.16,0,0,1,440.22,363.16Z" style="fill:#6930C3"></path></g></g><g id="freepik--lines--inject-23"><g id="freepik--Doodles--inject-23"><path d="M471,246.42a7.83,7.83,0,0,1-6.1-.09,4.69,4.69,0,0,0,.47-.53,4.36,4.36,0,0,0,.91-3.64,3.2,3.2,0,0,0-2.42-2.31,2.51,2.51,0,0,0-2.78,1.25,3.38,3.38,0,0,0,.18,3.34,6.26,6.26,0,0,0,1.83,2,7.36,7.36,0,0,1-3.22,1.1,11.32,11.32,0,0,1-6-1l-.15-.08a5.62,5.62,0,0,0,3.26-2.11,2.76,2.76,0,0,0-.14-3.25,3.12,3.12,0,0,0-3.17-.69,4.23,4.23,0,0,0-2.76,2.17,3.32,3.32,0,0,0,.41,3.16,11.5,11.5,0,0,1-3.76-.29,7.94,7.94,0,0,1-5.2-3.7c-1-2-.66-4.43-.1-6.48a13.65,13.65,0,0,0,3.41,1.3c2.81.67,6.11.94,8.73-.53,2.22-1.24,3.92-3.88,3.15-6.47-.82-2.74-3.65-4.11-6.35-4-4.48.15-7.89,3.55-9.59,7.49a2.5,2.5,0,0,1-.24-.22c-2.88-2.9-2.62-7.72-.57-11a14.62,14.62,0,0,1,4.53-4.43c2-1.26,4.33-2.48,6.73-2.44a5.34,5.34,0,0,1,3.88,1.63c.34.37,1.08.19.74-.36-1.51-2.47-4.76-2.83-7.33-2.13a18.06,18.06,0,0,0-7.4,4.21,12.76,12.76,0,0,0-4,6.7,10.28,10.28,0,0,0,1.09,7.25,8,8,0,0,0,2,2.23c-.09.3-.18.61-.25.91-.65,2.66-.78,5.71,1,8a10.43,10.43,0,0,0,7.22,3.56,12.51,12.51,0,0,0,3.29-.14,8.17,8.17,0,0,0,2.76,1.27,13.88,13.88,0,0,0,3.68.54,9,9,0,0,0,5.34-1.53,9,9,0,0,0,3.58.93,7.28,7.28,0,0,0,3.83-.82C472,246.88,471.39,246.24,471,246.42Zm-20.83-19.56c2.18-.4,4.64.23,5.73,2.33s0,4.16-1.7,5.36c-1.93,1.38-4.55,1.31-6.78.92a13,13,0,0,1-4.7-1.62C444,230.55,446.55,227.53,450.14,226.86Zm1.7,16.95a2.63,2.63,0,0,1,1.8-2.32c.86-.36,2.19-.45,2.5.67s-.66,2.16-1.6,2.64a8.63,8.63,0,0,1-2,.7A2.68,2.68,0,0,1,451.84,243.81Zm10.51-2.64a1.6,1.6,0,0,1,2.48.41,3.05,3.05,0,0,1-.12,3.1,4.86,4.86,0,0,1-.83,1.07C462.4,244.7,460.87,242.73,462.35,241.17Z" style="fill:#263238"></path><path d="M242.82,430.42a7.73,7.73,0,0,1-4.8,3.75c0-.24,0-.47,0-.71a4.38,4.38,0,0,0-1.58-3.4,3.18,3.18,0,0,0-3.33-.29,2.5,2.5,0,0,0-1.38,2.72A3.39,3.39,0,0,0,234,435a6.31,6.31,0,0,0,2.66.39,7.27,7.27,0,0,1-1.83,2.87,11.34,11.34,0,0,1-5.29,3l-.17,0a5.62,5.62,0,0,0,1.22-3.69,2.78,2.78,0,0,0-2.15-2.45,3.14,3.14,0,0,0-2.9,1.45,4.23,4.23,0,0,0-.79,3.43,3.33,3.33,0,0,0,2.29,2.2,11.14,11.14,0,0,1-3.1,2.13,8,8,0,0,1-6.37.38c-2-.91-3.29-3-4.14-5a13.55,13.55,0,0,0,3.47-1.13c2.61-1.23,5.35-3.09,6.47-5.87.95-2.36.63-5.49-1.6-7s-5.42-.92-7.47.84c-3.39,2.93-3.93,7.71-2.78,11.85l-.32,0c-4.06-.46-6.89-4.38-7.33-8.21a14.46,14.46,0,0,1,.75-6.29c.74-2.22,1.83-4.65,3.71-6.12a5.37,5.37,0,0,1,4.06-1.16c.5.07,1-.53.35-.75-2.73-1-5.49.78-7.05,2.93a18.21,18.21,0,0,0-3.13,7.92,12.86,12.86,0,0,0,1.09,7.73,10.38,10.38,0,0,0,5.4,5,8,8,0,0,0,3,.48c.11.3.24.59.37.87,1.15,2.48,3,4.94,5.77,5.59a10.48,10.48,0,0,0,7.86-1.75,12.51,12.51,0,0,0,2.48-2.17,8.34,8.34,0,0,0,2.94-.75,13.79,13.79,0,0,0,3.21-1.88,8.91,8.91,0,0,0,3.2-4.54,9,9,0,0,0,3.37-1.51,7.48,7.48,0,0,0,2.48-3C243.92,430.13,243.05,430,242.82,430.42Zm-28.48-2.19c1.45-1.68,3.76-2.74,5.92-1.78s2.6,3.25,2,5.25c-.64,2.28-2.72,3.86-4.7,5a13,13,0,0,1-4.69,1.68C211.83,435,212,431,214.34,428.23Zm11.95,12.14a2.62,2.62,0,0,1,0-2.94c.44-.82,1.42-1.71,2.36-1s.84,2.09.41,3.05a8.86,8.86,0,0,1-1.12,1.8A2.75,2.75,0,0,1,226.29,440.37Zm6.53-8.64A1.61,1.61,0,0,1,235,430.5a3,3,0,0,1,1.85,2.49,4.37,4.37,0,0,1,0,1.35C235.08,434.45,232.65,433.87,232.82,431.73Z" style="fill:#263238"></path><path d="M416.41,318.76a4.59,4.59,0,0,0-2.41-2.93c-.46-.22-.95.36-.45.66,2.37,1.44,2.24,4.57.95,6.69a11.61,11.61,0,0,1-5.57,4.54,13.79,13.79,0,0,1-4.29,1l.14-.15a10.9,10.9,0,0,0,2.09-3.67c.46-1.4.77-3.11-.08-4.41a6.21,6.21,0,0,0-4-2.51,4,4,0,0,0,.23-3.75c-1.31-2.68-5.31-3-7.89-2.64a12.61,12.61,0,0,0-10.33,9.74,6.4,6.4,0,0,1-2.65-4,9.4,9.4,0,0,1,1.16-6.63,16.77,16.77,0,0,1,5.49-5.4,19.09,19.09,0,0,1,7-3.13,6.72,6.72,0,0,1,4.58.68c.49.29.84-.27.38-.6-2.46-1.75-5.46-1.35-8.13-.33a24.89,24.89,0,0,0-7.73,4.8,12.68,12.68,0,0,0-4.22,7.15,8.78,8.78,0,0,0,2,7.44,7.8,7.8,0,0,0,1.89,1.45,11.11,11.11,0,0,0-.09,1.16c-.12,3,.88,6,3.54,7.53a14,14,0,0,0,9.15,1.33,13.15,13.15,0,0,0,6.4-2.93,15.42,15.42,0,0,0,2.54-.17,14.36,14.36,0,0,0,7.38-3.38C415.51,324.4,417.24,321.65,416.41,318.76Zm-12.63.67a3.39,3.39,0,0,1,2.24,2.88,8.12,8.12,0,0,1-1,3.69,10.61,10.61,0,0,1-2.1,2.7c-.23,0-.47,0-.7,0-2.25-.25-4.92-1.09-6.49-2.81a3,3,0,0,1-.81-2.4,16.19,16.19,0,0,0,4.79-2.21,11,11,0,0,0,2.46-2.34A6.15,6.15,0,0,1,403.78,319.43ZM395.31,322a5.89,5.89,0,0,1,2.1-2.27,6.75,6.75,0,0,1,3.14-1A11.89,11.89,0,0,1,395.31,322Zm-3.5-8.19a10.29,10.29,0,0,1,7.46-.87,3.36,3.36,0,0,1,2.6,2.15,3.58,3.58,0,0,1-.55,2.63,8,8,0,0,0-1.7.08,7,7,0,0,0-5.81,4.63,13.52,13.52,0,0,1-7.17-.22c-.24-.08-.47-.18-.7-.28A11.83,11.83,0,0,1,391.81,313.85Zm7.71,17a14,14,0,0,1-8,.59,8.36,8.36,0,0,1-3.5-1.54,6,6,0,0,1-1.94-3.25,10.29,10.29,0,0,1-.26-3.36,14.33,14.33,0,0,0,5.22.77,15.58,15.58,0,0,0,2.63-.3c0,2.42,2.32,4,4.5,4.95a13.77,13.77,0,0,0,3.57,1A10.61,10.61,0,0,1,399.52,330.85Z" style="fill:#263238"></path><path d="M204.87,252.49a11.74,11.74,0,0,0,1-6,9.18,9.18,0,0,0-5-7.54c-3.07-1.55-6.74-1.69-10.1-1.33a26.32,26.32,0,0,0-10.58,3.5c-2.8,1.67-6.33,4.25-6,7.94a4.65,4.65,0,0,0,1.89,3.49c.37.27.87-.19.47-.51a4,4,0,0,1-1.21-3.92,7,7,0,0,1,2.3-3.72,22.32,22.32,0,0,1,8.48-4.59,24,24,0,0,1,9.56-1c2.83.31,5.83,1.35,7.45,3.84a9.66,9.66,0,0,1,.95,7.87c0,.16-.12.32-.17.48a11.08,11.08,0,0,0-1.11-1.17,14.93,14.93,0,0,0-8.45-3.6c-6-.6-13.07,2.69-14.14,9.14a6.86,6.86,0,0,0,4.09,7.36c-1.75,2.32-3,5.48-1.58,8.16,1.62,3,5.52,3.55,8.52,2.66a18.87,18.87,0,0,0,3.71-1.64,14.2,14.2,0,0,1-4.35,5,5.54,5.54,0,0,1-4.34,1c-.67-.17-.93.65-.27.86,3.47,1.09,6.66-1.49,8.62-4.1a23.18,23.18,0,0,0,2.38-3.94,30.36,30.36,0,0,0,3.75-2.72,15.29,15.29,0,0,0,5.35-8.87A10,10,0,0,0,204.87,252.49Zm-22,7.56c-2-2.25-1.42-5.48.16-7.78a10.92,10.92,0,0,1,6.3-4.25c4.86-1.27,11,.29,13.93,4.57a16.17,16.17,0,0,1-4.22,5,25.06,25.06,0,0,1-2.16,1.59,5.6,5.6,0,0,0-2.89-1.13,10.79,10.79,0,0,0-8.76,3.63h0A6.48,6.48,0,0,1,182.88,260.05Zm12.94-.17a18.28,18.28,0,0,1-5.15,2.17,9.47,9.47,0,0,1-4.07.08,12.28,12.28,0,0,1,2-1.55C190.5,259.36,193.79,258.45,195.82,259.88Zm-1.94,11.22a12.22,12.22,0,0,1-4.85,1.65c-2.88.21-5.77-1.65-5.5-4.8a9,9,0,0,1,2-4.67c3.1.9,6.37.09,9.24-1.33.66-.33,1.31-.69,2-1.07l.05.06c1.48,2.4.42,5.83-.53,8.23-.09.24-.2.48-.3.72C195.29,270.31,194.59,270.72,193.88,271.1Zm10-9.34a16.87,16.87,0,0,1-6,6.86,17.09,17.09,0,0,0,.86-3.83,7.2,7.2,0,0,0-.76-4.35l-.16-.23a20.24,20.24,0,0,0,6.25-6.21A9.92,9.92,0,0,1,203.86,261.76Z" style="fill:#263238"></path></g></g></svg>